<svg width="254" height="205" viewBox="0 0 254 205" fill="none" xmlns="http://www.w3.org/2000/svg">
<g clip-path="url(#clip0_83_738)">
<path d="M160.377 37.4086H160.182C158.527 37.1683 157.366 35.9516 156.251 34.7725C155.772 34.2367 155.256 33.7348 154.708 33.2705L154.431 33.0527L154.633 32.7598C157.657 28.5977 159.391 23.6348 159.621 18.4903V18.1523H159.958L160.954 18.0997C161.763 18.1048 162.57 18.0115 163.357 17.8219C164.106 17.4914 164.413 16.6503 164.743 15.764C164.855 15.4711 164.96 15.1858 165.087 14.9229L165.447 14.0292L166.667 14.5774V14.7877C167.671 23.8 165.417 32.0162 160.474 37.2809L160.377 37.4086ZM155.449 32.9025C155.914 33.308 156.355 33.7736 156.79 34.2243C157.823 35.3057 158.797 36.3346 160.1 36.5975C164.758 31.5281 166.892 23.7024 165.978 15.0656L165.859 15.0055L165.776 15.2083C165.656 15.4561 165.559 15.734 165.454 16.0119C165.102 16.9582 164.705 18.0321 163.612 18.5053C162.756 18.7245 161.875 18.833 160.991 18.8282H160.354C160.071 23.8911 158.371 28.7715 155.449 32.91V32.9025Z" fill="#F77F00"/>
<path d="M69.7344 50.6793C69.9141 44.6711 69.5247 38.6103 70.0938 32.5946C71.8312 40.4804 72.9845 48.4938 74.0179 56.4998C72.2056 56.4998 70.3959 56.4998 68.5886 56.4998C69.2303 54.6203 69.6158 52.6624 69.7344 50.6793Z" fill="#DD9D73"/>
<path d="M37.6156 51.25C38.1244 50.3082 38.5844 49.3406 38.9935 48.3511C39.9492 50.5232 40.6794 52.7882 41.1727 55.1103C39.4878 55.5985 37.8328 56.1768 36.1553 56.6574L35.4064 56.7926L34.1633 56.6574C35.4289 54.9301 36.4174 53.0225 37.6156 51.25Z" fill="#B27453"/>
<path d="M62.62 70.2135C65.7877 70.2135 68.9554 70.2135 72.1306 70.2135C72.1306 70.589 72.1306 71.34 72.1306 71.7155C68.9554 71.7155 65.7852 71.7155 62.62 71.7155C62.6125 71.3475 62.62 70.5965 62.62 70.2135Z" fill="#B27453"/>
<path d="M23.6716 105.932C28.2247 107.6 31.9616 110.882 35.9905 113.495C32.8902 116.394 37.578 120.157 36.4398 123.536L36.1777 122.913C34.9447 122.84 33.7185 122.679 32.5082 122.432C31.3999 121.681 30.8982 120.39 30.2616 119.278C28.1498 114.794 25.5737 110.529 23.6716 105.932Z" fill="#B27453"/>
<path d="M152.941 133.818C155.132 129.972 157.869 126.466 161.066 123.409C161.141 124.272 161.223 125.128 161.328 125.992C158.527 128.591 155.869 131.347 152.941 133.818Z" fill="black"/>
<path d="M129.351 12.7675C131.418 5.12956 139.236 -0.262808 147.055 5.13941e-05C150.929 0.0622416 154.689 1.32883 157.816 3.62508C160.943 5.92134 163.282 9.13407 164.511 12.8201L164.144 14.0217C160.465 14.0309 156.792 13.7497 153.158 13.1806C150.087 12.79 146.875 12.0465 143.819 12.8651C140.659 13.9541 139.963 18.1899 141.88 20.6758C143.677 22.0126 145.976 22.3431 147.991 23.2668C148.822 25.8954 150.754 28.5691 149.653 31.4155C149.226 32.8274 148.103 34.5923 146.411 34.3069C141.917 33.6385 137.192 32.6997 133.612 29.6881C132.242 28.3401 131.121 26.7583 130.302 25.0167C129.059 21.0596 128.734 16.8699 129.351 12.7675Z" fill="#F77F00"/>
<path d="M124.049 42.1927C125.038 41.4417 126.034 39.9396 127.457 40.4278C129.838 42.9663 129.748 46.6989 129.501 49.9433C128.603 57.3709 124.566 63.8147 121.264 70.3411C129.232 73.7628 137.481 76.4891 145.916 78.4898C145.408 81.114 145.182 83.7855 145.242 86.4582L144.943 86.3906L144.666 86.323C138.39 86.4131 132.272 84.9636 126.266 83.3189C121.316 81.3887 116.149 79.7966 111.716 76.8C109.274 75.1627 107.275 72.2938 107.866 69.2446C109.102 58.3548 116.284 49.4025 124.049 42.1927Z" fill="#F77F00"/>
<path d="M103.838 76.6648C106.084 76.8751 107.582 78.7827 109.282 80.0219C112.075 82.1323 115.497 83.071 118.635 84.528C118.425 89.0943 120.545 93.27 123.076 96.9124C119.212 97.8137 115.228 97.0852 111.349 97.7686C109.891 98.0261 108.407 98.1043 106.93 98.0014C104.571 96.597 101.853 95.2001 100.745 92.5114C99.9215 90.2048 100.026 87.6673 101.037 85.4368C102.205 82.6129 102.647 79.5037 103.838 76.6648Z" fill="#F77F00"/>
<path d="M23.342 105.181L24.5028 105.361C27.3383 106.585 30.247 107.631 33.2121 108.493C54.1129 115.59 74.8864 123.168 95.8546 130.063C98.0338 137.858 100.692 145.519 102.969 153.292C103.142 153.725 103.174 154.202 103.06 154.654C102.945 155.106 102.691 155.51 102.332 155.808C101.239 156.123 100.221 155.515 99.3368 154.952C89.8937 148.658 80.3381 142.56 70.88 136.341C59.3325 128.636 47.5079 121.321 36.0578 113.495C32.0289 110.881 28.292 107.599 23.7389 105.932C23.5892 105.744 23.4169 105.369 23.342 105.181Z" fill="white"/>
<path d="M174.673 114.156C180.971 116.026 187.149 118.279 193.312 120.562C191.785 123.444 190.417 126.407 189.216 129.439C187.987 132.443 186.295 135.245 185.621 138.452C185.065 139.175 184.584 139.952 184.183 140.772C178.664 153.232 173.175 165.714 167.626 178.158C166.503 181.493 162.511 180.366 159.86 180.412C160.115 179.345 160.362 178.279 160.609 177.22C165.327 156.206 170.015 135.185 174.673 114.156Z" fill="#B75E01"/>
<path d="M43.3444 29.1849C48.9908 29.1849 54.6223 29.598 60.2612 29.6731C63.174 30.1223 66.1138 30.3732 69.0604 30.4241C66.9336 30.672 64.7844 30.732 62.6876 31.1752C61.0475 32.4894 60.8079 34.7651 60.6432 36.7327C60.2238 43.5971 60.1789 50.484 60.2687 57.3559L62.403 57.6263L60.7405 58.3322C59.6022 63.672 60.0441 69.147 59.6022 74.5544C59.4899 82.8157 59.3476 91.0244 59.6022 99.2557C66.5442 99.3908 73.4862 99.3533 80.4282 99.2557C80.4282 98.3018 80.4282 97.348 80.4282 96.4017C80.563 97.4156 80.6828 98.4295 80.8026 99.4509C64.4699 99.4509 48.1296 99.6687 31.7969 99.6161C31.6396 96.8148 31.5797 94.0135 31.6546 91.2197C31.6546 88.9666 31.7894 65.2492 31.5273 58.9631C28.749 58.6627 26.2852 60.1347 23.5818 60.5778C22.4217 57.8649 21.5094 55.0521 20.856 52.1738C23.4209 51.1434 26.0469 50.2731 28.719 49.5678C29.3327 52.5223 30.2176 55.4136 31.3625 58.2046C32.718 57.754 34.0659 57.2658 35.4214 56.8077L36.1702 56.6725C37.4208 56.8602 38.6565 57.1306 39.9146 57.3334C39.9895 59.256 40.0569 61.1861 40.1317 63.1163H47.6204C47.6204 61.2537 47.6204 59.3612 47.6204 57.5437C46.1826 57.4385 44.7522 57.3334 43.3294 57.2583C43.247 55.7562 43.1272 54.2542 43.1497 52.7521C43.569 44.8739 43.1796 37.0256 43.3444 29.1849Z" fill="#F8D1A7"/>
<path d="M143.235 17.8144C143.385 16.9507 143.535 15.4561 144.778 15.8917C146.021 16.3273 145.355 17.9646 144.726 18.6931C144.351 18.4753 143.602 18.0247 143.235 17.8144Z" fill="#41332F"/>
<path d="M60.7629 27.4425C64.3799 27.4425 68.0119 27.2697 71.6214 27.5852C71.8386 28.6291 72.0633 29.6805 72.2205 30.7395C72.6773 34.427 73.4637 38.0695 73.9429 41.757C74.6918 47.4273 75.6878 53.0224 76.5939 58.6852C78.4661 70.0257 80.3832 81.3586 82.1205 92.7141C82.4201 95.0273 82.7646 97.333 83.109 99.6311C85.5204 99.6912 87.9242 99.6837 90.3281 99.6311C89.1599 97.6259 87.752 95.5455 87.8344 93.1197C87.8344 89.9053 89.4968 87.1115 91.2192 84.5129C91.6216 83.848 91.9077 83.119 92.0655 82.3575C95.1059 66.8413 102.692 51.9184 114.576 41.344C120.132 36.299 126.585 32.3475 133.598 29.6956C137.177 32.6997 141.887 33.646 146.396 34.3144C148.088 34.5998 149.211 32.8123 149.638 31.4229C150.739 28.5765 148.807 25.9029 147.976 23.2743C149.083 24.0916 150.116 25.0065 151.061 26.008C151.376 26.8717 151.698 27.7504 152.027 28.6216C152.062 30.9523 151.427 33.2437 150.2 35.2231C149.059 35.8589 147.756 36.1412 146.456 36.0342C144.276 35.6212 142.12 35.0954 139.933 34.7199C140.584 36.3003 141.149 37.9148 141.625 39.5565C141.91 41.2721 141.91 43.0231 141.625 44.7386C141.431 45.9027 141.184 47.0668 141.004 48.2384C139.771 46.9319 138.169 46.0346 136.412 45.6668C134.656 45.299 132.83 45.4783 131.179 46.1806C132.19 49.8155 137.005 50.7468 140.27 49.8982L139.521 51.9034C139.102 52.4967 138.675 53.075 138.24 53.6608C138.091 54.0213 137.791 54.7498 137.634 55.1028C135.065 60.36 132.145 65.4819 130.407 71.0846L131.725 71.4902C136.219 73.2626 140.764 74.8172 145.332 76.3418C145.519 77.0553 145.699 77.7687 145.886 78.4897C137.451 76.4891 129.203 73.7627 121.234 70.3411C124.544 63.8147 128.58 57.3709 129.471 49.9432C129.718 46.6988 129.808 42.9662 127.427 40.4277C126.004 39.9095 125.008 41.4266 124.02 42.1926C116.254 49.4025 109.042 58.3547 107.829 69.2296C107.237 72.3163 109.237 75.1476 111.678 76.7849C116.112 79.789 121.279 81.3737 126.229 83.3038C132.22 84.9335 138.353 86.383 144.628 86.3079L144.905 86.3755C144.808 86.8036 144.621 87.6673 144.523 88.0953C139.109 88.0353 133.807 86.8186 128.408 86.5933L127.472 86.4656C127.723 90.0591 128.479 93.5989 129.718 96.98C127.704 96.7396 125.697 96.4392 123.683 96.229C122.387 94.9372 120.874 93.7055 120.253 91.9181C119.324 89.5673 119.451 86.9613 118.613 84.5805C115.475 83.1311 112.053 82.1923 109.259 80.0744C107.522 78.8352 106.084 76.9276 103.815 76.7173C102.624 79.5562 102.183 82.6429 101.014 85.4818C100.004 87.7123 99.8992 90.2498 100.722 92.5564C101.831 95.2451 104.549 96.642 106.908 98.0464C102.797 98.6848 98.9176 100.247 95.016 101.614C94.7539 106.12 98.5581 109.545 102.108 111.678C111.551 117.318 122.492 119.616 133.088 122.027C132.204 122.68 131.273 123.267 130.303 123.784C128.296 124.25 125.952 124.783 125.15 126.961C124.027 129.597 121.698 132.391 122.866 135.387C123.787 137.873 126.685 138.392 128.857 139.263C125.427 145.271 122.013 151.279 118.74 157.377C117.242 160.111 115.333 162.635 113.805 165.331C116.449 167.884 118.845 170.671 121.473 173.247C124.252 176.04 128.4 176.161 131.958 177.137C127.951 177.355 123.93 177.317 119.923 177.25C116.959 177.104 114.099 176.106 111.686 174.373C108.368 172.12 105.043 169.927 101.741 167.689C101.74 173.471 100.408 179.176 97.8485 184.357C95.2887 189.538 91.5704 194.057 86.9834 197.56C82.3964 201.063 77.0646 203.457 71.4036 204.555C65.7427 205.652 59.9055 205.423 54.347 203.887C48.7886 202.35 43.6591 199.547 39.3584 195.695C35.0577 191.844 31.702 187.049 29.5528 181.683C27.4036 176.317 26.519 170.526 26.968 164.762C27.417 158.997 29.1874 153.414 32.1413 148.448C36.1295 141.741 42.0513 136.404 49.1255 133.142C44.8367 134.517 40.888 136.791 37.5406 139.811C33.0474 143.739 28.5542 147.689 24.061 151.617C21.177 154.198 17.4421 155.616 13.5769 155.598C17.4785 149.942 21.6048 144.437 25.4689 138.745C27.401 138.677 29.348 138.692 31.2951 138.684C31.2951 138.414 31.1678 137.881 31.1228 137.61C26.4274 137.34 21.7096 137.61 16.9992 137.535L14.8051 137.483C14.8051 137.212 14.8575 136.664 14.8799 136.394C18.9912 136.394 23.1175 136.394 27.2287 136.356C28.06 135.463 28.4569 133.683 29.9546 133.773C32.0664 133.668 34.1782 133.773 36.2825 133.607C36.0832 133.189 35.7477 132.851 35.3312 132.649C34.9147 132.447 34.442 132.393 33.991 132.496C23.6317 132.496 13.2724 132.496 2.91308 132.496C1.88188 132.533 0.864372 132.25 0 131.685C10.1396 130.994 20.3467 131.685 30.4938 131.324C32.8228 129.071 34.3205 126.022 36.4398 123.536C37.578 120.157 32.8902 116.394 35.9905 113.495C47.4406 121.343 59.2652 128.636 70.8127 136.341C80.3008 142.56 89.8563 148.658 99.2695 154.952C100.161 155.515 101.179 156.123 102.265 155.808C102.623 155.51 102.878 155.106 102.993 154.654C103.107 154.202 103.075 153.725 102.902 153.292C100.655 145.519 97.9665 137.858 95.7873 130.063C98.648 126.968 101.831 124.197 104.542 120.975C103.86 120.224 103.216 119.27 102.093 119.225C89.2522 116.857 76.4092 114.504 63.5637 112.166C51.5294 110.033 39.5401 107.554 27.4609 105.692C27.5507 105.204 27.738 104.235 27.8353 103.754C28.6291 101.989 29.7674 100.3 31.692 99.6611C48.0247 99.7137 64.365 99.4884 80.6977 99.4959C80.5779 98.4745 80.4581 97.4606 80.3233 96.4467C78.3912 83.101 76.0847 69.8079 73.9804 56.4997C72.9844 48.4937 71.8311 40.4803 70.0938 32.5945C69.8991 31.6407 70.0938 30.5517 69.4872 29.7256C66.4318 29.305 63.3315 29.6205 60.2612 29.673C54.6222 29.5979 49.0282 29.1774 43.3443 29.1849H41.24L60.7629 27.4425ZM38.297 158.767C36.3684 164.504 36.382 170.719 38.3357 176.448C40.2894 182.177 44.0738 187.099 49.1018 190.45C54.1298 193.801 60.1202 195.394 66.1432 194.981C72.1663 194.569 77.8852 192.175 82.4126 188.17C84.1799 186.284 87.43 188.605 89.0026 186.472C83.3337 185.819 77.5974 186.472 71.891 186.157L72.2056 185.158C76.5939 184.888 80.9972 185.083 85.3856 185.06C86.1344 184.174 86.786 183.273 87.4749 182.364C89.4444 182.041 92.043 183.198 93.5632 181.613C92.6786 181.386 91.7723 181.255 90.8598 181.223C80.2409 181.263 69.6245 181.263 59.0106 181.223C58.8567 181.266 58.6951 181.273 58.5379 181.245C58.3806 181.217 58.2317 181.154 58.1022 181.06C57.9727 180.966 57.8659 180.844 57.7898 180.703C57.7137 180.562 57.6702 180.406 57.6626 180.246C67.8547 179.998 78.0542 180.314 88.2462 180.096L88.7929 179.893C91.7698 174.126 92.5676 167.474 91.0395 161.163C90.8598 160.179 89.8713 159.758 89.1599 159.21C79.7541 152.976 70.4382 146.54 60.9801 140.434C50.6607 141.193 41.5171 149.056 38.297 158.767Z" fill="black"/>
<path d="M160.257 77.0252C162.339 76.1991 164.75 76.0113 166.705 77.3632C169.004 78.5948 169.813 81.2234 170.389 83.6042C174.261 84.6556 178.2 85.4818 181.967 86.8787C178.649 88.7637 175.272 90.5136 171.992 92.4513L171.243 92.0983C169.633 91.3473 168.173 90.3409 166.577 89.6049C165.17 89.1693 163.649 89.297 162.204 89.1993C161.29 88.6705 160.436 88.0435 159.658 87.3293C160.744 87.2166 162.421 86.6834 161.972 85.2189C161.545 82.5903 160.152 80.2621 158.902 77.964C159.343 77.6486 159.793 77.3557 160.257 77.0252Z" fill="black"/>
<path d="M151.271 79.5487C153.6 78.5122 156.565 80.6527 156.056 83.2137C155.906 85.9324 152.117 87.2016 150.23 85.3015C149.802 84.9061 149.481 84.4089 149.297 83.8558C149.112 83.3028 149.07 82.712 149.173 82.1381C149.277 81.5643 149.524 81.026 149.891 80.5733C150.257 80.1206 150.732 79.7682 151.271 79.5487ZM151.271 81.9144C151.271 82.3575 151.331 83.2437 151.361 83.6868C151.657 83.7478 151.965 83.73 152.252 83.6352C152.54 83.5403 152.798 83.3717 153.001 83.1461C153.353 81.8618 152.132 81.9219 151.271 81.9144Z" fill="#41332F"/>
<path d="M166.076 98.9928L168.495 97.3781C170.741 102.898 172.756 108.531 174.673 114.171C170.025 135.2 165.339 156.228 160.617 177.257C153.952 177.13 147.264 177.43 140.607 177.13C135.582 173.645 129.666 169.619 128.835 163.025C134.271 156.747 139.319 150.138 144.486 143.649C146.65 139.834 150.073 137.077 152.941 133.84C155.869 131.369 158.527 128.583 161.328 126.015C162.788 124.573 164.473 123.221 165.402 121.343C166.151 119.841 166.076 118.061 166.151 116.402C166.076 110.589 166.143 104.791 166.076 98.9928Z" fill="black"/>
<path d="M197.91 115.898L199.408 114.682C212.715 114.742 226.157 118.542 237.068 126.3C237.817 126.908 239.218 127.802 238.394 128.944C237.645 130.656 235.645 129.454 234.335 129.357C218.369 125.444 200.329 127.374 186.969 137.52L185.659 138.459C186.333 135.26 188.025 132.451 189.253 129.447C190.455 126.415 191.823 123.451 193.35 120.57C194.72 118.873 196.247 117.309 197.91 115.898Z" fill="black"/>
<path d="M193.439 138.076C198.992 133.683 205.673 130.959 212.707 130.221C219.742 129.482 226.84 130.76 233.18 133.905C239.519 137.051 244.839 141.935 248.521 147.99C252.204 154.046 254.099 161.025 253.985 168.117C253.985 180.967 246.661 193.367 235.653 199.848C227.486 204.581 217.838 206.049 208.639 203.957C199.44 201.865 191.367 196.368 186.034 188.565C180.701 180.763 178.501 171.229 179.874 161.869C181.247 152.51 186.092 144.016 193.439 138.084V138.076ZM193.402 152.901C189.78 158.61 188.413 165.469 189.568 172.135C190.614 178.32 193.737 183.96 198.418 188.12C203.099 192.281 209.057 194.712 215.305 195.011C221.553 195.31 227.715 193.459 232.769 189.764C237.824 186.069 241.468 180.753 243.097 174.696C244.742 168.515 244.227 161.955 241.636 156.108C242.76 155.838 244.519 156.476 245.021 155.049C239.936 154.666 234.837 155.049 229.744 154.907C229.138 154.832 227.498 154.907 228.119 153.863C232.156 153.487 236.222 153.825 240.266 153.697C239.697 152.796 239.128 151.918 238.558 151.024C242.123 151.024 245.688 151.024 249.26 151.024V149.905C237.473 149.905 225.693 149.905 213.913 149.905C213.868 149.041 214.273 148.673 215.119 148.793C222.248 148.696 229.347 148.793 236.514 148.726C233.408 145.391 229.521 142.889 225.204 141.446C220.888 140.003 216.281 139.666 211.801 140.464C208.043 141.145 204.466 142.603 201.298 144.744C198.131 146.885 195.442 149.663 193.402 152.901Z" fill="black"/>
<path d="M60.7554 158.624C65.9975 156.326 72.5501 159.856 73.6434 165.436C75.0588 170.903 70.648 176.889 65.0015 177.077C62.6691 177.258 60.3519 176.572 58.4916 175.149C56.6313 173.727 55.3579 171.667 54.9143 169.364C54.5021 167.173 54.8585 164.906 55.9232 162.948C56.9879 160.991 58.6953 159.463 60.7554 158.624Z" fill="#41332F"/>
<path d="M213.936 158.264C218.968 156.762 224.689 160.291 225.715 165.428C227.213 171.114 222.316 177.317 216.452 177.099C214.124 177.121 211.869 176.289 210.11 174.759C208.352 173.23 207.21 171.109 206.901 168.796C206.592 166.482 207.136 164.135 208.432 162.195C209.727 160.256 211.685 158.858 213.936 158.264Z" fill="black"/>
<path d="M143.82 12.8726C146.875 12.054 150.088 12.7975 153.158 13.188L151.159 13.526C151.671 15.032 151.882 16.6245 151.78 18.2124C152.145 20.021 151.881 21.9004 151.031 23.5371C151.031 24.3633 151.031 25.1819 151.031 26.008C150.1 25.0112 149.082 24.0989 147.991 23.2818C145.976 22.358 143.677 22.0276 141.88 20.6908C139.963 18.1974 140.659 13.9616 143.82 12.8726ZM143.236 17.8143C143.602 18.0396 144.351 18.4752 144.733 18.693C145.362 17.942 146.134 16.2897 144.786 15.8917C143.438 15.4937 143.385 16.9507 143.236 17.8143Z" fill="black"/>
<path d="M118.635 84.5205C119.474 86.9013 119.384 89.5073 120.275 91.858C120.897 93.6455 122.409 94.8621 123.705 96.1689C125.719 96.4168 127.726 96.7172 129.741 96.9199L130.205 97.3255C138.121 100.592 145.931 104.197 153.914 107.247C157.104 108.583 160.901 110.491 161.687 114.216C162.676 117.22 161.964 120.42 161.066 123.371C157.869 126.428 155.132 129.934 152.941 133.78C150.072 137.017 146.65 139.788 144.486 143.589C139.289 150.115 134.271 156.724 128.805 162.973C125.427 161.11 122.102 159.127 118.71 157.295C121.983 151.197 125.397 145.181 128.827 139.18C129.461 138.131 129.986 137.018 130.392 135.861C133.126 131.82 135.829 127.599 137.514 123.026C136.091 122.468 134.6 122.104 133.081 121.944C122.484 119.533 111.543 117.235 102.1 111.595C98.5506 109.462 94.7463 106.06 95.0084 101.531C98.91 100.164 102.789 98.6022 106.9 97.9639C108.377 98.0667 109.861 97.9885 111.319 97.7311C115.198 97.0476 119.182 97.7761 123.046 96.8749C120.567 93.2625 118.425 89.0867 118.635 84.5205Z" fill="#312E2E"/>
<path d="M130.302 25.0167C128.056 21.5244 127.801 16.5977 129.351 12.7524C128.732 16.8598 129.057 21.0549 130.302 25.0167Z" fill="#F77F00"/>
<path d="M164.511 12.8275C164.833 13.5785 165.147 14.3296 165.439 15.0806C164.93 16.1696 164.69 17.6491 163.47 18.1898C162.326 18.4211 161.162 18.5368 159.995 18.5353C159.753 23.7505 157.996 28.7809 154.94 33.0076L154.573 32.5795C153.564 31.3695 152.707 30.0403 152.019 28.6216C151.69 27.7504 151.368 26.8717 151.053 26.008C151.053 25.1819 151.053 24.3633 151.053 23.5371C151.903 21.9004 152.167 20.0209 151.802 18.2124C151.904 16.6245 151.693 15.032 151.181 13.526L153.18 13.188C156.814 13.7571 160.488 14.0384 164.166 14.0292L164.511 12.8275Z" fill="#DD9D73" fill-opacity="0.2"/>
<path d="M160.954 71.5578H162.04C166.533 71.6179 171.026 71.3476 175.519 71.6029C178.619 71.8507 181.136 73.9686 183.075 76.2518C186.924 80.7579 190.871 85.2641 194.638 89.8453C191.53 89.2971 188.519 88.2982 185.389 87.8927C192.563 94.3965 199.662 100.991 206.986 107.322L206.694 107.645C197.805 106.743 189.006 104.881 180.072 104.641C186.011 108.396 191.972 112.151 197.88 115.906C196.204 117.317 194.664 118.883 193.282 120.585C187.119 118.332 180.941 116.079 174.643 114.179C172.726 108.538 170.711 102.913 168.465 97.3856C169.035 95.4722 169.968 93.6871 171.213 92.1284L171.962 92.4814C175.242 90.5438 178.619 88.7939 181.937 86.9088C178.193 85.5119 174.231 84.6557 170.359 83.6343C169.783 81.2536 168.974 78.625 166.675 77.3933C164.75 76.0415 162.309 76.2292 160.227 77.0554C158.086 75.5533 159.696 73.0148 160.954 71.5578Z" fill="#B75E01"/>
<path d="M26.8394 105.482C27.1914 104.911 27.5358 104.333 27.8728 103.754C27.7755 104.235 27.5883 105.204 27.4984 105.692C39.5776 107.554 51.5669 110.033 63.6012 112.166C76.4417 114.514 89.2847 116.867 102.13 119.225C103.254 119.27 103.898 120.217 104.579 120.975C101.868 124.197 98.6855 126.983 95.8248 130.063C74.8566 123.131 54.113 115.59 33.2122 108.493C30.2472 107.632 27.3384 106.586 24.5029 105.361L26.8394 105.482Z" fill="#312E2E"/>
<path d="M152.02 28.6217C152.701 30.0314 153.551 31.3529 154.551 32.5571C153.592 34.0591 152.117 35.4485 150.192 35.2232C151.42 33.2439 152.054 30.9524 152.02 28.6217Z" fill="#DD9D73"/>
<path d="M60.2612 29.673C63.3315 29.6205 66.4318 29.305 69.4872 29.7256C70.0563 30.5518 69.8991 31.6407 70.0938 32.5945C69.5246 38.6027 69.9141 44.6485 69.7343 50.6792C69.6157 52.6623 69.2303 54.6202 68.5886 56.4997C70.3908 56.4997 72.2006 56.4997 74.0178 56.4997C76.1221 69.8079 78.4286 83.101 80.3607 96.4468C80.3607 97.3931 80.3607 98.3469 80.3607 99.3007C73.4187 99.3682 66.4768 99.4058 59.5348 99.3007C59.3101 91.0394 60.1863 43.6421 60.6057 36.7778C60.7704 34.8101 61.0101 32.5345 62.6501 31.2202C64.7469 30.7771 66.8961 30.717 69.0229 30.4691C66.0878 30.4016 63.1606 30.1356 60.2612 29.673ZM62.6201 70.2284C62.6201 70.5965 62.6201 71.3249 62.6201 71.7305C65.7903 71.7305 68.9605 71.7305 72.1307 71.7305C72.1307 71.3475 72.1307 70.5965 72.1307 70.2284C68.9555 70.2134 65.7878 70.2435 62.6201 70.2134V70.2284Z" fill="#DD9D73"/>
<path d="M139.97 34.72C142.157 35.0955 144.314 35.6212 146.493 36.0343C145.04 37.4107 143.417 38.5945 141.663 39.5566C141.186 37.9149 140.621 36.3003 139.97 34.72Z" fill="#DD9D73"/>
<path d="M131.201 46.1807C132.853 45.4783 134.679 45.299 136.435 45.6668C138.191 46.0346 139.793 46.9319 141.026 48.2385L141.086 49.3725L140.292 49.8982C137.042 50.7469 132.212 49.8156 131.201 46.1807Z" fill="black"/>
<path d="M28.719 49.5677C32.0889 48.6139 35.294 47.0969 38.7163 46.3158C38.8362 46.9917 38.9335 47.6752 38.9934 48.3586C38.5843 49.3481 38.1243 50.3157 37.6155 51.2576C36.4173 53.03 35.4288 54.9376 34.1782 56.68L35.4213 56.8151C34.0659 57.2733 32.7179 57.7614 31.3625 58.2121C30.2171 55.4186 29.3322 52.5248 28.719 49.5677Z" fill="#DD9D73"/>
<path d="M92.0654 82.3575C91.2192 80.5175 91.6086 78.4898 91.5487 76.5371C91.1967 70.0182 91.4963 63.4767 91.1293 56.9654C87.385 57.0254 83.6407 57.0329 79.8963 56.9654C79.769 48.6064 79.9787 40.2325 79.5968 31.8811C79.7156 31.1148 79.7931 30.3426 79.8289 29.5679C77.3202 29.8458 74.4371 29.0422 72.1531 30.0636L72.213 30.7546C72.6698 34.4421 73.4561 38.0846 73.9354 41.7721C74.6842 47.4423 75.6802 53.0375 76.5864 58.7002C76.6538 58.3397 76.796 57.6112 76.8709 57.2507C76.796 57.6112 76.6538 58.3397 76.5864 58.7002C78.4585 70.0407 80.3756 81.3737 82.113 92.7292C82.4125 95.0424 82.757 97.348 83.1015 99.6461C85.5128 99.7062 87.9167 99.6987 90.3205 99.6461C89.1523 97.6409 87.7445 95.5606 87.8268 93.1348C87.8268 89.9204 89.4893 87.1266 91.2117 84.528C91.6182 83.8589 91.907 83.1248 92.0654 82.3575Z" fill="#DD9D73"/>
<path d="M39.8921 57.3333C41.0414 57.2156 42.1982 57.188 43.3518 57.2507C44.7747 57.3258 46.205 57.4309 47.6428 57.5361C47.6428 59.3911 47.6428 61.2462 47.6428 63.1087H40.1542C40.0344 61.1861 39.967 59.2559 39.8921 57.3333Z" fill="#DD9D73"/>
<path d="M145.909 78.4898C149.548 77.5661 153.225 76.4395 157.014 76.417C157.699 76.8607 158.332 77.3797 158.902 77.9641C160.152 80.2622 161.545 82.5904 161.972 85.219C162.421 86.7211 160.744 87.2167 159.658 87.3294C154.85 87.5021 149.923 87.7725 145.235 86.4582C145.174 83.7855 145.4 81.114 145.909 78.4898ZM151.263 79.5488C150.724 79.7683 150.25 80.1207 149.883 80.5734C149.516 81.0261 149.27 81.5644 149.166 82.1382C149.062 82.7121 149.104 83.3029 149.289 83.856C149.474 84.409 149.795 84.9063 150.222 85.3016C152.109 87.2017 155.899 85.9325 156.048 83.2138C156.558 80.6528 153.592 78.5124 151.271 79.5488H151.263Z" fill="#DD9D73"/>
</g>
<defs>
<clipPath id="clip0_83_738">
<rect width="254" height="205" fill="white"/>
</clipPath>
</defs>
</svg>
