<svg width="295" height="19" viewBox="0 0 295 19" fill="none" xmlns="http://www.w3.org/2000/svg">
<path d="M13 9.1C13 6.15 12.975 4.325 11.875 2.8C10.6 1.025 8.925 0.2 6.5 0.2H0.0750001V18H6.5C8.925 18 10.6 17.175 11.875 15.4C12.975 13.875 13 12.05 13 9.1ZM9.525 9.1C9.525 11.9 9.45 13.025 8.8 13.8C8.225 14.525 7.375 14.9 6.2 14.9H3.55V3.3H6.2C7.375 3.3 8.225 3.675 8.8 4.4C9.45 5.175 9.525 6.3 9.525 9.1ZM39.1045 9.1C39.1045 5.7 39.0545 3.7 37.2795 1.925C36.0795 0.724999 34.5795 0.0499986 32.5295 0.0499986C30.4795 0.0499986 28.9545 0.724999 27.7545 1.925C25.9795 3.7 25.9545 5.7 25.9545 9.1C25.9545 12.5 25.9795 14.5 27.7545 16.275C28.9545 17.475 30.4795 18.15 32.5295 18.15C34.5795 18.15 36.0795 17.475 37.2795 16.275C39.0545 14.5 39.1045 12.5 39.1045 9.1ZM35.6295 9.1C35.6295 12.5 35.4045 13.325 34.7545 14.075C34.2545 14.65 33.4795 15.05 32.5295 15.05C31.5795 15.05 30.8045 14.65 30.2795 14.075C29.6295 13.325 29.4295 12.5 29.4295 9.1C29.4295 5.7 29.6295 4.85 30.2795 4.1C30.8045 3.525 31.5795 3.15 32.5295 3.15C33.4795 3.15 34.2545 3.525 34.7545 4.1C35.4045 4.85 35.6295 5.7 35.6295 9.1ZM72.3492 0.2H68.7242L65.9492 11.425L62.6992 0.2H60.0992L56.8492 11.425L54.0992 0.2H50.4742L55.2242 18H58.1242L61.3992 7.2L64.6742 18H67.5742L72.3492 0.2ZM98.1922 18V0.2H94.7172V11.1L87.6672 0.2H84.5672V18H88.0422V7.075L95.0922 18H98.1922ZM123.891 18V14.9H115.816V0.2H112.341V18H123.891ZM148.392 9.1C148.392 5.7 148.342 3.7 146.567 1.925C145.367 0.724999 143.867 0.0499986 141.817 0.0499986C139.767 0.0499986 138.242 0.724999 137.042 1.925C135.267 3.7 135.242 5.7 135.242 9.1C135.242 12.5 135.267 14.5 137.042 16.275C138.242 17.475 139.767 18.15 141.817 18.15C143.867 18.15 145.367 17.475 146.567 16.275C148.342 14.5 148.392 12.5 148.392 9.1ZM144.917 9.1C144.917 12.5 144.692 13.325 144.042 14.075C143.542 14.65 142.767 15.05 141.817 15.05C140.867 15.05 140.092 14.65 139.567 14.075C138.917 13.325 138.717 12.5 138.717 9.1C138.717 5.7 138.917 4.85 139.567 4.1C140.092 3.525 140.867 3.15 141.817 3.15C142.767 3.15 143.542 3.525 144.042 4.1C144.692 4.85 144.917 5.7 144.917 9.1ZM175.436 18L168.936 0.2H166.211L159.736 18H163.361L164.436 14.85H170.761L171.811 18H175.436ZM169.836 11.925H165.411L167.661 5.45L169.836 11.925ZM200.554 9.1C200.554 6.15 200.529 4.325 199.429 2.8C198.154 1.025 196.479 0.2 194.054 0.2H187.629V18H194.054C196.479 18 198.154 17.175 199.429 15.4C200.529 13.875 200.554 12.05 200.554 9.1ZM197.079 9.1C197.079 11.9 197.004 13.025 196.354 13.8C195.779 14.525 194.929 14.9 193.754 14.9H191.104V3.3H193.754C194.929 3.3 195.779 3.675 196.354 4.4C197.004 5.175 197.079 6.3 197.079 9.1ZM243.669 18L237.169 0.2H234.444L227.969 18H231.594L232.669 14.85H238.994L240.044 18H243.669ZM238.069 11.925H233.644L235.894 5.45L238.069 11.925ZM268.636 5.75C268.636 2.725 266.461 0.2 262.761 0.2H255.861V18H259.336V11.3H262.761C266.461 11.3 268.636 8.775 268.636 5.75ZM265.161 5.75C265.161 7.2 264.161 8.175 262.586 8.175H259.336V3.3H262.586C264.161 3.3 265.161 4.3 265.161 5.75ZM294.334 5.75C294.334 2.725 292.159 0.2 288.459 0.2H281.559V18H285.034V11.3H288.459C292.159 11.3 294.334 8.775 294.334 5.75ZM290.859 5.75C290.859 7.2 289.859 8.175 288.284 8.175H285.034V3.3H288.284C289.859 3.3 290.859 4.3 290.859 5.75Z" fill="#F77F00"/>
</svg>
