<svg width="220" height="192" viewBox="0 0 220 192" fill="none" xmlns="http://www.w3.org/2000/svg">
<path d="M91.6273 127.886C77.9776 130.568 50.9994 136.046 30.8294 121.396C19.4491 113.121 10.3715 101.579 9.96191 101.279L24.9068 79.2641L17.4454 90.2775L24.8846 79.2526C32.6338 85.0757 45.4864 102.821 63.4867 98.2527C71.6565 96.1812 81.1991 94.8923 91.0184 79.8395L116.989 89.2532C108.819 106.147 111.2 124.883 91.6273 127.886Z" fill="#F77F00"/>
<path d="M45.2758 104.202C45.2758 104.202 36.7959 91.175 28.1722 87.1586C19.5485 83.1422 14.0908 86.4796 14.0908 86.4796L4.84715 82.6704C4.84715 82.6704 3.51872 118.864 27.5523 112.488C29.4564 111.982 45.2758 104.202 45.2758 104.202Z" fill="#FF7955"/>
<path d="M6.21982 63.8084L15.076 116.263C15.2167 117.077 15.5121 117.854 15.9449 118.549C16.3778 119.243 16.9394 119.841 17.597 120.307C18.2545 120.773 18.9949 121.098 19.7747 121.263C20.5546 121.428 21.3583 121.43 22.1389 121.269L45.8071 116.332C47.3305 116.016 48.6754 115.096 49.556 113.765C50.4366 112.435 50.7836 110.8 50.523 109.208L41.844 57.5479C41.5658 55.9276 40.6818 54.4878 39.3852 53.5432C38.0886 52.5986 36.485 52.2262 34.925 52.5073L11.124 56.6848C9.56596 56.9555 8.17481 57.8575 7.2555 59.1928C6.3362 60.5282 5.96375 62.188 6.21982 63.8084Z" fill="black"/>
<path d="M9.96159 63.118C9.97061 62.5978 10.1282 62.0921 10.4144 61.6652C10.7006 61.2383 11.1024 60.9095 11.5688 60.7205C12.0352 60.5316 12.5451 60.4911 13.0337 60.6042C13.5223 60.7173 13.9675 60.9788 14.3128 61.3556C14.658 61.7323 14.8877 62.2073 14.9726 62.7201C15.0576 63.2329 14.9939 63.7603 14.7898 64.2354C14.5856 64.7105 14.2502 65.1118 13.8261 65.3882C13.402 65.6646 12.9084 65.8037 12.4081 65.7878C12.0786 65.7804 11.7537 65.7053 11.4522 65.5669C11.1507 65.4286 10.8784 65.2296 10.6511 64.9815C10.4237 64.7334 10.2458 64.4411 10.1274 64.1213C10.0091 63.8015 9.95276 63.4605 9.96159 63.118Z" fill="white"/>
<path d="M0.773552 83.9018C0.773552 83.9018 -2.33719 76.8588 3.91751 73.9703C11.8881 70.2876 25.2388 73.5905 20.2129 75.9957C16.506 77.5614 12.6663 78.7635 8.74414 79.5863C8.74414 79.5863 26.6448 76.1338 26.0802 80.2077C25.5156 84.2816 10.0615 87.0435 10.0615 87.0435C10.0615 87.0435 27.7739 85.3749 26.058 89.046C24.3422 92.7171 10.294 95.3179 10.294 95.3179C10.294 95.3179 27.5525 92.7171 25.4603 96.9406C23.368 101.164 14.1022 100.635 10.1611 101.337C6.44153 101.993 4.8142 99.7255 4.45995 95.9739C4.45995 95.9739 2.00235 92.4524 2.36767 89.9436C2.50051 88.9769 1.51526 88.2289 1.32706 87.5729C1.05133 86.366 0.866271 85.1386 0.773552 83.9018Z" fill="#FF7955"/>
<path d="M183.389 185.289C183.3 189.087 161.049 190.595 133.572 189.709C106.096 188.822 84.033 184.864 84.1327 181.066C84.2323 177.268 106.362 175.047 133.882 175.933C161.403 176.819 183.488 181.457 183.389 185.289Z" fill="#131F2D"/>
<path d="M176.658 77.8025C176.658 77.8025 171.798 57.9163 135.897 57.7091C84.1326 57.4214 88.926 106.493 84.1326 181.066C84.1326 181.066 115.517 167.544 183.389 185.255C183.389 185.29 187.894 108.184 176.658 77.8025Z" fill="url(#paint0_linear_105_36)"/>
<path d="M189.909 74.9484L166.462 88.3325C166.462 88.3325 114.022 100.278 100.384 97.9534C86.7452 95.6287 84.1326 89.8976 84.1326 89.8976C84.1326 89.8976 98.6457 62.6921 123.321 58.5607C125.631 58.1694 128.034 57.8855 130.528 57.709C134.686 57.4185 138.86 57.5032 143.004 57.9622C174.267 61.5988 189.909 74.9484 189.909 74.9484Z" fill="url(#paint1_linear_105_36)"/>
<path d="M140.835 53.1518L138.122 44.1293L137.336 41.5054L132.698 26.0614L132.089 41.4364L131.735 50.643L131.613 53.5661C131.536 55.5455 130.362 55.9598 128.945 57.686C128.358 58.388 124.672 62.6115 128.868 64.5219C134.082 66.9041 143.846 63.302 147.554 58.5836C147.521 58.5721 141.698 56.0749 140.835 53.1518Z" fill="#FF7955"/>
<path d="M196.839 191.803C194.68 167.291 189.721 132.248 178.396 104.49C176.799 100.214 174.87 96.0807 172.628 92.1303C170.979 89.2993 173.924 83.0963 178.584 80.1272C182.946 77.3537 189.754 77.8255 190.828 79.1835C192.655 81.4852 194.614 86.0079 197.647 93.12C208.208 117.851 214.54 149.798 217.098 190.998L196.839 191.803Z" fill="#FF7955"/>
<path d="M120.764 20.2612C120.189 23.0374 120.189 25.909 120.764 28.6851C121.705 33.3804 126.299 21.8609 126.299 21.8609L120.764 20.2612Z" fill="#131F2D"/>
<path d="M146.589 33.7015C147.782 24.6464 142.847 16.4652 135.566 15.4284C128.285 14.3916 121.415 20.8917 120.222 29.9468C119.029 39.0019 123.964 47.183 131.245 48.2199C138.526 49.2567 145.396 42.7566 146.589 33.7015Z" fill="#FF7955"/>
<path d="M132.698 31.1362C132.664 31.1107 132.636 31.0781 132.615 31.0404C132.594 31.0028 132.581 30.9609 132.576 30.9177C132.573 30.8814 132.577 30.8449 132.588 30.8102C132.598 30.7755 132.615 30.7433 132.638 30.7155C132.661 30.6877 132.688 30.6648 132.72 30.6482C132.751 30.6316 132.785 30.6215 132.82 30.6186C133.46 30.5248 134.112 30.6533 134.674 30.984C135.237 31.3147 135.678 31.8292 135.93 32.4476C135.961 32.5132 135.965 32.5887 135.943 32.6577C135.92 32.7267 135.872 32.7834 135.809 32.8156C135.744 32.8437 135.673 32.8476 135.606 32.8266C135.539 32.8056 135.482 32.761 135.443 32.7006C134.765 31.905 133.849 31.3701 132.842 31.1823C132.791 31.1794 132.742 31.1636 132.698 31.1362Z" fill="#080435"/>
<path d="M133.872 34.7041C133.705 35.3485 133.196 35.7628 132.765 35.6362C132.522 35.5183 132.334 35.3071 132.239 35.0472C132.144 34.7873 132.15 34.4992 132.255 34.2438C132.421 33.5994 132.919 33.1851 133.362 33.3117C133.805 33.4383 134.038 34.0597 133.872 34.7041Z" fill="#080435"/>
<path d="M122.724 30.3076C122.691 30.2984 122.66 30.2811 122.635 30.257C122.61 30.233 122.591 30.203 122.58 30.1695C122.559 30.1031 122.557 30.0317 122.575 29.9642C122.592 29.8967 122.629 29.8361 122.679 29.7899C122.879 29.6183 123.109 29.4902 123.358 29.4133C123.606 29.3363 123.866 29.3122 124.123 29.3422C124.381 29.3723 124.63 29.456 124.855 29.5882C125.081 29.7205 125.278 29.8987 125.436 30.112C125.477 30.1682 125.5 30.2369 125.5 30.3076C125.5 30.3783 125.477 30.447 125.436 30.5031C125.417 30.5252 125.394 30.5428 125.368 30.5549C125.343 30.567 125.315 30.5732 125.286 30.5732C125.258 30.5732 125.23 30.567 125.204 30.5549C125.179 30.5428 125.156 30.5252 125.137 30.5031C124.795 30.3071 124.419 30.1856 124.031 30.1461C123.642 30.1065 123.25 30.1497 122.879 30.2731C122.858 30.2928 122.833 30.3064 122.806 30.3125C122.778 30.3186 122.75 30.3169 122.724 30.3076Z" fill="#080435"/>
<path d="M125.181 33.162C125.25 33.429 125.218 33.7135 125.09 33.9559C124.962 34.1984 124.749 34.3799 124.495 34.4625C124.03 34.4625 123.587 34.0367 123.509 33.3807C123.432 32.7247 123.742 32.1378 124.196 32.0802C124.65 32.0227 125.092 32.506 125.181 33.162Z" fill="#080435"/>
<path d="M155.458 29.3181C155.458 29.3181 151.03 39.2153 144.698 39.9403C144.698 39.9403 149.801 32.4023 139.052 27.799C139.052 27.799 148.916 26.1993 155.458 29.3181Z" fill="black"/>
<path d="M146.569 34.7847C145.975 35.2196 145.241 35.3946 144.524 35.2719C143.808 35.1492 143.166 34.7386 142.738 34.1287C142.562 33.8042 142.45 33.4467 142.407 33.0766C142.365 32.7066 142.393 32.3315 142.491 31.973C142.589 31.6145 142.754 31.2797 142.977 30.988C143.2 30.6963 143.476 30.4534 143.79 30.2734C144.384 29.8385 145.118 29.6635 145.835 29.7862C146.551 29.9089 147.193 30.3195 147.621 30.9294C147.971 31.5861 148.056 32.3601 147.859 33.0825C147.662 33.8048 147.198 34.4167 146.569 34.7847Z" fill="#FF7955"/>
<path d="M139.052 27.7992C139.052 27.7992 139.916 36.1081 138.277 37.6733C136.639 39.2384 125.812 39.9749 120.764 37.9149C120.714 40.5117 121.559 43.0415 123.146 45.0467C124.734 47.052 126.96 48.4003 129.421 48.8478C131.132 49.1469 132.88 49.1469 134.591 48.8478C138.122 48.2148 141.565 46.6957 143.026 43.3123C143.469 42.2881 142.174 35.947 142.174 35.947C142.174 35.947 141.698 32.2299 143.79 30.2735C142.446 29.0324 140.812 28.1793 139.052 27.7992Z" fill="black"/>
<path d="M139.052 27.7991C139.052 27.7991 139.938 22.045 135.532 21.5731C131.126 21.1013 126.078 20.4223 124.351 21.5731C122.624 22.724 120.543 27.3848 120.543 27.3848C120.543 27.3848 118.118 18.673 122.557 14.9559C126.997 11.2387 141.144 6.32462 150.233 12.8153C159.322 19.306 155.514 29.3182 155.514 29.3182C150.136 27.9225 144.582 27.4099 139.052 27.7991Z" fill="black"/>
<path d="M145.174 12.8154C145.174 12.8154 151.816 7.14183 150.322 2.94134C148.827 -1.25914 141.776 0.0758077 139.052 0.731774C136.329 1.38774 135.864 6.40531 138.056 9.6391C140.248 12.8729 145.174 12.8154 145.174 12.8154Z" fill="#131F2D"/>
<path d="M158.979 62.2204C158.979 62.2204 164.514 56.9036 157.872 55.0277C155.215 54.2797 151.229 47.5244 147.565 48.1228C143.901 48.7212 141.698 70.1265 126.875 76.7553C126.875 76.7553 123.233 80.0236 129.166 79.8855C135.1 79.7474 158.979 62.2204 158.979 62.2204Z" fill="#657285"/>
<path d="M126.875 76.7552C126.875 76.7552 119.469 69.2288 120.764 62.2203C122.059 55.2118 118.284 49.2045 116.447 52.3693C114.609 55.534 112.495 53.5201 112.019 57.548C111.543 61.5758 117.31 81.0477 122.502 81.0477C127.694 81.0477 126.875 76.7552 126.875 76.7552Z" fill="#657285"/>
<path d="M128.546 78.2629C128.546 78.2629 133.34 80.484 131.569 85.7433C129.797 91.0025 132.277 93.1316 132.277 93.1316C132.277 93.1316 126.465 93.4193 125.768 87.7917C125.587 86.0907 125.74 84.3692 126.218 82.7314C126.696 81.0936 127.488 79.5735 128.546 78.2629Z" fill="#657285"/>
<path d="M125.834 78.2629C125.834 78.2629 119.746 80.4035 119.491 84.4889C119.236 88.5744 122.713 89.5411 123.919 87.1128C125.126 84.6846 127.683 79.9201 127.683 79.9201L125.834 78.2629Z" fill="#657285"/>
<path d="M143.026 43.2893C143.026 43.2893 143.026 49.0434 139.052 52.2197C135.078 55.3959 137.724 58.2155 134.27 62.7727C130.816 67.33 134.923 67.4336 128.801 70.7479C122.679 74.0623 118.074 71.0587 119.27 65.9835C120.465 60.9084 115.163 62.2549 117.664 55.8333C120.166 49.4117 122.004 53.359 119.879 46.5231C117.753 39.6872 120.753 37.9149 120.753 37.9149C120.753 37.9149 124.074 38.1451 126.864 38.6514C129.654 39.1578 132.056 38.2717 133.96 38.9046C135.864 39.5376 143.026 43.2893 143.026 43.2893Z" fill="black"/>
<path d="M123.432 40.907C126.266 41.6222 129.193 41.8592 132.1 41.609C132.001 42.2085 131.781 42.7798 131.457 43.2858C131.132 43.7918 130.708 44.2214 130.214 44.5467C129.719 44.8721 129.165 45.086 128.586 45.1746C128.007 45.2633 127.416 45.2247 126.853 45.0614C124.185 44.578 123.432 40.907 123.432 40.907Z" fill="white"/>
<path d="M217.098 182.148C217.098 182.148 203.127 183.69 195.887 182.148C195.887 182.148 194.946 185.991 196.463 187.741C196.463 187.741 213.201 189.053 217.098 187.741C217.098 187.741 219.987 184.864 217.098 182.148Z" fill="#131F2D"/>
<path d="M206.858 190.917H209.459C211.575 190.917 213.29 189.134 213.29 186.935V183.529C213.29 181.33 211.575 179.547 209.459 179.547H206.858C204.742 179.547 203.027 181.33 203.027 183.529V186.935C203.027 189.134 204.742 190.917 206.858 190.917Z" fill="#131F2D"/>
<path d="M189.909 74.9484C189.909 74.9484 201.754 82.1871 213.279 129.682C224.803 177.176 216.146 178.016 216.146 178.016C216.146 178.016 200.592 178.327 195.599 176.486C190.607 174.644 187.928 132.087 177.953 114.778C167.979 97.4701 164.414 70.9781 189.909 74.9484Z" fill="url(#paint2_linear_105_36)"/>
<path d="M125.68 108.967C125.684 108.602 125.584 108.243 125.392 107.938C125.2 107.632 124.925 107.392 124.602 107.249C124.278 107.106 123.922 107.067 123.577 107.135C123.231 107.203 122.914 107.377 122.664 107.634C122.414 107.89 122.243 108.218 122.173 108.576C122.103 108.934 122.136 109.305 122.27 109.643C122.403 109.981 122.63 110.27 122.922 110.473C123.214 110.676 123.557 110.785 123.908 110.785C124.374 110.785 124.821 110.594 125.153 110.254C125.485 109.914 125.674 109.451 125.68 108.967Z" fill="#131F2D"/>
<path d="M125.679 131.201C125.681 130.836 125.579 130.479 125.386 130.175C125.193 129.87 124.917 129.632 124.593 129.491C124.27 129.35 123.914 129.312 123.569 129.382C123.225 129.452 122.908 129.626 122.659 129.883C122.411 130.14 122.241 130.468 122.172 130.826C122.102 131.183 122.137 131.554 122.27 131.891C122.404 132.228 122.631 132.517 122.923 132.719C123.214 132.922 123.557 133.03 123.908 133.03C124.14 133.032 124.37 132.986 124.585 132.895C124.8 132.803 124.995 132.669 125.16 132.499C125.324 132.329 125.455 132.126 125.544 131.904C125.633 131.681 125.679 131.442 125.679 131.201Z" fill="#131F2D"/>
<path d="M125.679 157.439C125.681 157.075 125.579 156.718 125.386 156.413C125.193 156.109 124.917 155.871 124.593 155.73C124.27 155.589 123.914 155.551 123.569 155.621C123.225 155.69 122.908 155.865 122.659 156.122C122.411 156.379 122.241 156.707 122.172 157.064C122.102 157.422 122.137 157.793 122.27 158.13C122.404 158.467 122.631 158.755 122.923 158.958C123.214 159.161 123.557 159.269 123.908 159.269C124.14 159.271 124.37 159.225 124.585 159.133C124.8 159.042 124.995 158.907 125.16 158.737C125.324 158.567 125.455 158.365 125.544 158.142C125.633 157.92 125.679 157.681 125.679 157.439Z" fill="#131F2D"/>
<path d="M183.854 131.88L184.728 131.661C182.369 121.808 179.264 112.165 175.44 102.822L174.621 103.19C178.416 112.487 181.503 122.08 183.854 131.88Z" fill="#131F2D"/>
<path d="M87.4538 129.359C88.4391 112.834 96.3986 91.6009 96.4761 91.3822L95.6458 91.0485C95.5572 91.2671 87.5535 112.626 86.5571 129.29L87.4538 129.359Z" fill="#131F2D"/>
<defs>
<linearGradient id="paint0_linear_105_36" x1="360670" y1="3148.2" x2="372113" y2="20812.7" gradientUnits="userSpaceOnUse">
<stop stop-color="#F77F00"/>
<stop offset="1" stop-color="#6100D1"/>
</linearGradient>
<linearGradient id="paint1_linear_105_36" x1="383018" y1="635.668" x2="384528" y2="8345.19" gradientUnits="userSpaceOnUse">
<stop stop-color="#F77F00"/>
<stop offset="1" stop-color="#6100D1"/>
</linearGradient>
<linearGradient id="paint2_linear_105_36" x1="174106" y1="4593.85" x2="184251" y2="14004.1" gradientUnits="userSpaceOnUse">
<stop stop-color="#F77F00"/>
<stop offset="1" stop-color="#6100D1"/>
</linearGradient>
</defs>
</svg>
