<svg width="233" height="79" viewBox="0 0 233 79" fill="none" xmlns="http://www.w3.org/2000/svg">
<path d="M10.0235 0H223.559C228.767 0 233 4.23294 233 9.44149V69.2376C233 74.4462 228.767 78.6791 223.559 78.6791H10.0235C4.81497 78.6791 0.582031 74.4462 0.582031 69.2376V9.44149C0.582031 4.23294 4.81497 0 10.0235 0Z" fill="black"/>
<path d="M51.4557 37.5457C51.4085 31.9123 56.0663 29.1742 56.2709 29.0483C53.6273 25.2088 49.5359 24.6738 48.104 24.6266C44.6736 24.2646 41.3376 26.688 39.5909 26.688C37.8128 26.688 35.1062 24.6738 32.2108 24.721C28.4814 24.7839 24.9723 26.9397 23.0683 30.3072C19.1186 37.1523 22.0612 47.2232 25.8535 52.7622C27.7576 55.4688 29.9606 58.5058 32.8717 58.3956C35.7042 58.2855 36.7742 56.586 40.1889 56.586C43.5878 56.586 44.5792 58.3956 47.5375 58.3327C50.5902 58.2855 52.4943 55.6104 54.3354 52.8724C56.5227 49.7724 57.4039 46.7039 57.4353 46.5466C57.3567 46.5151 51.5187 44.2806 51.4557 37.5457Z" fill="white"/>
<path d="M45.8696 20.9916C47.3959 19.0876 48.4345 16.4912 48.1513 13.8475C45.9482 13.9419 43.1787 15.3739 41.5894 17.2465C40.1889 18.8987 38.9301 21.5896 39.2448 24.123C41.7311 24.3119 44.2803 22.8642 45.8696 20.9916Z" fill="white"/>
<path d="M92.558 58.0022H88.5926L86.421 51.1728H78.8678L76.8064 58.0022H72.9512L80.4257 34.7604H85.052L92.558 58.0022ZM85.7759 48.3089L83.8089 42.2506C83.6043 41.6212 83.2109 40.1735 82.6444 37.8761H82.5658C82.3297 38.8674 81.9678 40.3309 81.4642 42.2506L79.5287 48.3089H85.7759Z" fill="white"/>
<path d="M111.771 49.4261C111.771 52.2743 111 54.5245 109.442 56.1768C108.058 57.6559 106.327 58.3798 104.281 58.3798C102.062 58.3798 100.473 57.593 99.4972 56.0037V64.8H95.7678V46.751C95.7678 44.9571 95.7206 43.1318 95.6262 41.2435H98.8993L99.1038 43.9028H99.1668C100.41 41.9044 102.298 40.8973 104.816 40.8973C106.799 40.8973 108.435 41.6841 109.757 43.2419C111.11 44.8155 111.771 46.8612 111.771 49.4261ZM107.979 49.552C107.979 47.9155 107.617 46.5779 106.877 45.5236C106.075 44.4221 104.989 43.8713 103.636 43.8713C102.723 43.8713 101.889 44.1861 101.134 44.784C100.394 45.3977 99.8906 46.1845 99.6703 47.1759C99.5602 47.6322 99.4972 48.0099 99.4972 48.3088V51.1098C99.4972 52.3215 99.8749 53.36 100.614 54.194C101.354 55.028 102.33 55.4529 103.526 55.4529C104.926 55.4529 106.012 54.9022 106.799 53.8321C107.585 52.7463 107.979 51.3301 107.979 49.552Z" fill="white"/>
<path d="M131.032 49.4261C131.032 52.2743 130.261 54.5245 128.703 56.1768C127.319 57.6559 125.588 58.3798 123.542 58.3798C121.323 58.3798 119.734 57.593 118.758 56.0037V64.8H115.029V46.751C115.029 44.9571 114.982 43.1318 114.887 41.2435H118.16L118.365 43.9028H118.428C119.671 41.9044 121.559 40.8973 124.077 40.8973C126.06 40.8973 127.696 41.6841 129.018 43.2419C130.371 44.8155 131.032 46.8612 131.032 49.4261ZM127.24 49.552C127.24 47.9155 126.878 46.5779 126.138 45.5236C125.336 44.4221 124.25 43.8713 122.897 43.8713C121.984 43.8713 121.15 44.1861 120.395 44.784C119.655 45.3977 119.167 46.1845 118.931 47.1759C118.821 47.6322 118.758 48.0099 118.758 48.3088V51.1098C118.758 52.3215 119.136 53.36 119.875 54.194C120.615 55.028 121.591 55.4529 122.787 55.4529C124.187 55.4529 125.289 54.9022 126.06 53.8321C126.862 52.7463 127.24 51.3301 127.24 49.552Z" fill="white"/>
<path d="M152.59 51.4876C152.59 53.4703 151.898 55.0753 150.529 56.3185C149.018 57.6717 146.909 58.3484 144.203 58.3484C141.701 58.3484 139.702 57.8606 138.192 56.9007L139.057 53.8007C140.694 54.7606 142.488 55.2484 144.439 55.2484C145.839 55.2484 146.941 54.9337 147.712 54.3043C148.499 53.6748 148.892 52.8251 148.892 51.7708C148.892 50.8267 148.562 50.0399 147.932 49.3947C147.287 48.7495 146.217 48.1516 144.722 47.6008C140.615 46.0744 138.585 43.8557 138.585 40.9446C138.585 39.0405 139.309 37.4827 140.741 36.2553C142.173 35.0436 144.077 34.4299 146.453 34.4299C148.562 34.4299 150.324 34.7919 151.724 35.5314L150.78 38.5527C149.458 37.8446 147.979 37.4827 146.311 37.4827C145.005 37.4827 143.967 37.8131 143.227 38.4426C142.613 39.0248 142.299 39.7172 142.299 40.5512C142.299 41.4638 142.661 42.2349 143.369 42.8171C143.982 43.3679 145.115 43.9658 146.752 44.611C148.75 45.4135 150.214 46.3577 151.158 47.4435C152.118 48.5292 152.59 49.8825 152.59 51.4876Z" fill="white"/>
<path d="M164.927 44.0445H160.82V52.1799C160.82 54.2413 161.544 55.2799 162.991 55.2799C163.652 55.2799 164.203 55.2169 164.644 55.1068L164.754 57.9392C164.014 58.2067 163.054 58.3484 161.858 58.3484C160.379 58.3484 159.246 57.892 158.412 56.9951C157.578 56.0981 157.169 54.5875 157.169 52.4789V44.0288H154.73V41.2435H157.169V38.1751L160.82 37.0735V41.2435H164.927V44.0445Z" fill="white"/>
<path d="M183.401 49.4891C183.401 52.0698 182.661 54.1784 181.198 55.8306C179.656 57.5301 177.61 58.3798 175.061 58.3798C172.606 58.3798 170.639 57.5616 169.176 55.9408C167.712 54.32 166.988 52.2586 166.988 49.7724C166.988 47.1759 167.744 45.0516 169.239 43.3993C170.749 41.7471 172.779 40.9131 175.328 40.9131C177.783 40.9131 179.766 41.7313 181.261 43.3679C182.693 44.9415 183.401 46.9871 183.401 49.4891ZM179.545 49.5678C179.545 48.0257 179.215 46.7196 178.554 45.6181C177.767 44.2806 176.65 43.6196 175.202 43.6196C173.707 43.6196 172.559 44.2806 171.788 45.6181C171.111 46.7196 170.796 48.0571 170.796 49.6465C170.796 51.1886 171.127 52.5104 171.788 53.5962C172.59 54.9337 173.723 55.5946 175.171 55.5946C176.587 55.5946 177.704 54.918 178.523 53.5647C179.199 52.4317 179.545 51.1099 179.545 49.5678Z" fill="white"/>
<path d="M195.517 44.5166C195.155 44.4536 194.762 44.4222 194.337 44.4222C193.031 44.4222 192.008 44.91 191.3 45.9013C190.686 46.7668 190.372 47.884 190.372 49.2059V58.0022H186.642V46.515C186.642 44.5795 186.611 42.8171 186.532 41.2435H189.774L189.915 44.4536H190.026C190.419 43.3521 191.033 42.4552 191.882 41.7943C192.716 41.1963 193.613 40.8973 194.573 40.8973C194.919 40.8973 195.234 40.9288 195.502 40.9603L195.517 44.5166Z" fill="white"/>
<path d="M212.166 48.8283C212.166 49.4892 212.119 50.0557 212.024 50.512H200.852C200.899 52.1643 201.434 53.4389 202.473 54.3043C203.417 55.0754 204.629 55.4688 206.123 55.4688C207.776 55.4688 209.286 55.2013 210.64 54.682L211.222 57.2627C209.633 57.955 207.76 58.3012 205.604 58.3012C203.008 58.3012 200.962 57.5302 199.483 56.0038C198.004 54.4774 197.264 52.416 197.264 49.8511C197.264 47.3334 197.957 45.2248 199.341 43.541C200.789 41.7472 202.74 40.8502 205.195 40.8502C207.603 40.8502 209.444 41.7472 210.671 43.541C211.662 44.9887 212.166 46.7354 212.166 48.8283ZM208.61 47.8684C208.641 46.7669 208.389 45.807 207.886 45.0045C207.241 43.9659 206.249 43.4466 204.927 43.4466C203.716 43.4466 202.724 43.9502 201.969 44.9573C201.355 45.7598 200.978 46.7354 200.868 47.8527L208.61 47.8684Z" fill="white"/>
<path d="M83.9817 26.4519H82.0305L80.9605 23.1002H77.2468L76.224 26.4519H74.3357L78.0021 15.0277H80.2681L83.9817 26.4519ZM80.63 21.684L79.6701 18.6942C79.5757 18.3952 79.3869 17.6713 79.0879 16.5383H79.0564C78.9306 17.0262 78.7732 17.7343 78.5057 18.6942L77.5615 21.684H80.63Z" fill="white"/>
<path d="M93.1712 18.2064L90.0555 26.4519H88.2774L85.2561 18.2064H87.2231L88.6236 22.5652C88.8596 23.289 89.0642 23.9814 89.2215 24.6423H89.2687C89.4104 24.0443 89.6149 23.352 89.8667 22.5652L91.2515 18.2064H93.1712Z" fill="white"/>
<path d="M99.8121 26.4519L99.6705 25.5077H99.6233C99.0568 26.2631 98.2543 26.6407 97.2157 26.6407C95.7366 26.6407 94.698 25.6022 94.698 24.2174C94.698 22.1875 96.4604 21.1332 99.5132 21.1332V20.9758C99.5132 19.8901 98.9309 19.355 97.798 19.355C96.9797 19.355 96.2716 19.5596 95.6421 19.9687L95.2645 18.7728C96.0198 18.3007 96.9797 18.0647 98.0969 18.0647C100.253 18.0647 101.339 19.1977 101.339 21.4794V24.5164C101.339 25.3504 101.37 25.9955 101.464 26.4834L99.8121 26.4519ZM99.5604 22.3448C97.5304 22.3448 96.5076 22.8326 96.5076 24.0128C96.5076 24.8783 97.0269 25.3032 97.7665 25.3032C98.6949 25.3032 99.5604 24.5951 99.5604 23.6194V22.3448Z" fill="white"/>
<path d="M105.414 16.8531C104.8 16.8531 104.328 16.381 104.328 15.7515C104.328 15.1221 104.816 14.6658 105.445 14.6658C106.075 14.6658 106.578 15.1221 106.562 15.7515C106.562 16.4124 106.09 16.8531 105.414 16.8531ZM104.532 18.2063H106.358V26.4362H104.532V18.2063Z" fill="white"/>
<path d="M109.615 14.4297H111.441V26.4362H109.615V14.4297Z" fill="white"/>
<path d="M119.214 26.4519L119.072 25.5077H119.025C118.459 26.263 117.656 26.6407 116.618 26.6407C115.138 26.6407 114.1 25.6021 114.1 24.2174C114.1 22.1875 115.862 21.1332 118.915 21.1332V20.9758C118.915 19.89 118.333 19.355 117.2 19.355C116.382 19.355 115.673 19.5596 115.044 19.9687L114.666 18.7571C115.422 18.285 116.382 18.049 117.499 18.049C119.655 18.049 120.74 19.1819 120.74 21.4636V24.5006C120.74 25.3346 120.772 25.9798 120.851 26.4676H119.214V26.4519ZM118.962 22.3448C116.932 22.3448 115.909 22.8326 115.909 24.0128C115.909 24.8783 116.429 25.3032 117.168 25.3032C118.097 25.3032 118.962 24.5951 118.962 23.6194V22.3448Z" fill="white"/>
<path d="M128.168 26.6407C127.003 26.6407 126.138 26.1529 125.572 25.1773H125.54L125.43 26.4519H123.872C123.919 25.791 123.935 25.0514 123.935 24.2332V14.4297H125.776V19.418H125.808C126.358 18.5053 127.224 18.049 128.435 18.049C130.418 18.049 131.803 19.7485 131.803 22.219C131.803 24.7682 130.261 26.6407 128.168 26.6407ZM127.79 19.4809C126.736 19.4809 125.776 20.3936 125.776 21.6682V23.1159C125.776 24.2489 126.642 25.1773 127.759 25.1773C129.128 25.1773 129.946 24.0601 129.946 22.2819C129.946 20.6139 129.096 19.4809 127.79 19.4809Z" fill="white"/>
<path d="M134.509 14.4297H136.335V26.4362H134.509V14.4297Z" fill="white"/>
<path d="M146.295 22.7697H140.804C140.835 24.3276 141.874 25.2088 143.4 25.2088C144.218 25.2088 144.958 25.0672 145.619 24.8154L145.902 26.09C145.131 26.4362 144.218 26.5935 143.148 26.5935C140.568 26.5935 139.041 24.9727 139.041 22.4393C139.041 19.9216 140.599 18.0175 142.944 18.0175C145.037 18.0175 146.374 19.5754 146.374 21.9357C146.374 22.2662 146.358 22.5494 146.295 22.7697ZM144.627 21.4637C144.627 20.1891 143.982 19.2921 142.818 19.2921C141.764 19.2921 140.945 20.2048 140.819 21.4637H144.627Z" fill="white"/>
<path d="M157.389 26.6407C154.982 26.6407 153.424 24.8468 153.424 22.4078C153.424 19.8586 155.013 18.049 157.531 18.049C159.907 18.049 161.496 19.7642 161.496 22.2661C161.496 24.8311 159.86 26.6407 157.389 26.6407ZM157.468 19.3865C156.146 19.3865 155.296 20.6296 155.296 22.3448C155.296 24.0443 156.162 25.2717 157.452 25.2717C158.743 25.2717 159.608 23.9499 159.608 22.2976C159.592 20.6296 158.758 19.3865 157.468 19.3865Z" fill="white"/>
<path d="M171.331 26.452H169.506V21.7155C169.506 20.2521 168.939 19.5282 167.838 19.5282C166.752 19.5282 166.013 20.4566 166.013 21.5424V26.4363H164.187V20.5668C164.187 19.8429 164.171 19.0562 164.124 18.2064H165.729L165.808 19.481H165.855C166.343 18.5998 167.35 18.0333 168.467 18.0333C170.198 18.0333 171.331 19.3551 171.331 21.5109V26.452Z" fill="white"/>
<path d="M183.306 19.5911H181.292V23.588C181.292 24.6108 181.654 25.1144 182.362 25.1144C182.676 25.1144 182.96 25.0829 183.18 25.0357L183.227 26.4205C182.865 26.5621 182.393 26.625 181.811 26.625C180.363 26.625 179.514 25.8225 179.514 23.7454V19.5911H178.318V18.2221H179.514V16.7115L181.307 16.1607V18.2064H183.322V19.5911" fill="white"/>
<path d="M193 26.4519H191.174V21.7469C191.174 20.2677 190.608 19.5282 189.506 19.5282C188.562 19.5282 187.681 20.1733 187.681 21.4794V26.4362H185.855V14.4297H187.681V19.3708H187.712C188.295 18.4739 189.113 18.0333 190.183 18.0333C191.929 18.0333 193 19.3865 193 21.5423V26.4519Z" fill="white"/>
<path d="M202.346 22.7697H196.854C196.886 24.3276 197.924 25.2088 199.451 25.2088C200.269 25.2088 201.009 25.0672 201.67 24.8154L201.953 26.09C201.182 26.4362 200.269 26.5935 199.199 26.5935C196.618 26.5935 195.092 24.9727 195.092 22.4393C195.092 19.9216 196.65 18.0175 198.995 18.0175C201.087 18.0175 202.425 19.5754 202.425 21.9357C202.425 22.2662 202.409 22.5494 202.346 22.7697ZM200.678 21.4637C200.678 20.1891 200.033 19.2921 198.869 19.2921C197.814 19.2921 196.98 20.2048 196.87 21.4637H200.678Z" fill="white"/>
</svg>
