<svg width="229" height="79" viewBox="0 0 229 79" fill="none" xmlns="http://www.w3.org/2000/svg">
<path d="M9.29196 0.622314H219.445C224.571 0.622314 228.737 4.78821 228.737 9.91428V68.7634C228.737 73.8894 224.571 78.0553 219.445 78.0553H9.29196C4.1659 78.0553 0 73.8894 0 68.7634V9.91428C0 4.78821 4.1659 0.622314 9.29196 0.622314Z" fill="black"/>
<path d="M27.9066 37.7901C27.9066 37.7901 12.1257 29.0402 11.1965 28.5291C10.2673 28.0181 9.33813 28.3278 9.33813 29.3964V67.1063C9.33813 67.9116 10.0041 68.2523 10.8094 67.8186C11.6147 67.3695 27.9066 58.3408 27.9066 58.3408C27.9066 58.3408 30.1212 57.1174 31.2207 56.4979C33.0017 55.5068 36.5636 53.54 36.5636 53.54C36.5636 53.54 43.9197 49.467 44.8954 48.925C45.871 48.383 45.7781 47.6396 44.9573 47.2215C44.1365 46.8033 36.5791 42.5755 36.5791 42.5755L27.9066 37.7901Z" fill="url(#paint0_linear_73_120)"/>
<path d="M30.8181 48.0113L10.0661 28.3433C9.58599 28.4517 9.29175 28.8233 9.29175 29.4273V67.0598C9.29175 67.5708 9.49307 67.8806 9.75635 67.989L30.8181 48.0113Z" fill="url(#paint1_linear_73_120)"/>
<mask id="mask0_73_120" style="mask-type:alpha" maskUnits="userSpaceOnUse" x="9" y="28" width="22" height="40">
<path d="M30.8181 48.0113L10.0661 28.3433C9.58599 28.4517 9.29175 28.8234 9.29175 29.4274V67.0598C9.29175 67.5709 9.49307 67.8806 9.75635 67.989L30.8181 48.0113Z" fill="white"/>
</mask>
<g mask="url(#mask0_73_120)">
</g>
<mask id="mask1_73_120" style="mask-type:alpha" maskUnits="userSpaceOnUse" x="9" y="48" width="28" height="21">
<path d="M10.6052 67.8813L22.6073 61.284C25.5652 59.6424 27.9037 58.3415 27.9037 58.3415L36.6227 53.6491L30.8152 48.012L9.75342 67.9897C9.98572 68.0671 10.4039 68.0207 10.7291 67.8658" fill="white"/>
</mask>
<g mask="url(#mask1_73_120)">
<path d="M27.8732 37.7907C27.8423 37.8682 12.0614 29.1027 11.1477 28.6536C10.2185 28.0651 9.28931 28.3904 9.28931 29.428V67.2153C9.28931 68.0515 9.95523 68.3923 10.6831 67.9896C11.5658 67.494 27.8423 58.4653 27.8732 58.3879L36.5457 53.5871C36.4993 53.649 43.8399 49.576 44.7536 49.0959C45.8067 48.492 45.6983 47.7486 44.9085 47.3924C44.0567 46.8968 36.4993 42.669 36.5457 42.5916L27.8732 37.7907Z" fill="url(#paint2_linear_73_120)"/>
</g>
<path d="M11.1619 28.5136C10.7593 28.3123 10.3721 28.2504 10.0469 28.3278L30.8144 48.0268L36.5599 42.591L27.9029 37.7901C27.9029 37.7901 19.7415 33.268 14.8167 30.5424L11.1619 28.5136Z" fill="url(#paint3_linear_73_120)"/>
<mask id="mask2_73_120" style="mask-type:alpha" maskUnits="userSpaceOnUse" x="10" y="28" width="27" height="21">
<path d="M11.1619 28.5136C10.7593 28.3123 10.3721 28.2504 10.0469 28.3278L30.8144 48.0268L36.5599 42.591L27.9029 37.7901C27.9029 37.7901 19.7415 33.268 14.8167 30.5424L11.1619 28.5136Z" fill="white"/>
</mask>
<g mask="url(#mask2_73_120)">
</g>
<path d="M156.663 54.6551L154.944 56.2812C154.541 56.498 154.154 56.7612 153.767 56.9316C152.574 57.4736 151.366 57.613 150.282 57.613C149.136 57.613 147.34 57.5356 145.513 56.2037C142.973 54.4073 141.858 51.2945 141.858 48.5998C141.858 43.0091 146.38 40.268 150.081 40.268C151.366 40.268 152.698 40.5932 153.767 41.2746C155.563 42.4671 156.028 44.0158 156.276 44.852L147.851 48.2746L145.094 48.4914C145.993 53.0754 149.074 55.7391 152.481 55.7391C154.185 55.7391 155.439 55.1816 156.601 54.6086C156.601 54.6086 156.833 54.4847 156.663 54.6551ZM151.521 45.456C152.203 45.2082 152.543 44.9914 152.543 44.4804C152.543 43.0246 150.948 41.3521 149.028 41.3521C147.619 41.3521 144.955 42.4826 144.955 46.4007C144.955 47.0202 145.032 47.6706 145.063 48.321L151.521 45.456Z" fill="white"/>
<path d="M139.07 54.4539C139.07 55.8476 139.318 56.0645 140.495 56.1729C141.114 56.2503 141.718 56.2813 142.322 56.3432L141.006 57.133H134.703C135.524 56.049 135.679 55.9406 135.679 55.2282V54.4229L135.663 33.0514H132.875L135.555 31.7505H140.665C139.55 32.4009 139.225 32.7881 139.086 34.0425L139.07 54.4539Z" fill="white"/>
<path d="M129.298 42.0335C130.119 42.7149 131.822 44.1551 131.822 46.8808C131.822 49.5445 130.336 50.7989 128.833 51.9914C128.369 52.456 127.827 52.967 127.827 53.7568C127.827 54.5467 128.369 54.9803 128.756 55.3055L130.041 56.3121C131.605 57.644 133.03 58.8674 133.03 61.3453C133.03 64.7214 129.778 68.1439 123.645 68.1439C118.473 68.1439 115.979 65.666 115.979 63.0023C115.979 61.7015 116.614 59.874 118.736 58.6196C120.951 57.2568 123.94 57.071 125.55 56.9626C125.055 56.3121 124.482 55.6307 124.482 54.5157C124.482 53.9117 124.667 53.54 124.838 53.1064C124.451 53.1374 124.048 53.1838 123.692 53.1838C119.913 53.1838 117.776 50.3343 117.776 47.5312C117.776 45.8742 118.519 44.0467 120.068 42.7149C122.097 41.0269 124.528 40.7326 126.448 40.7326H133.805L131.513 42.0335H129.298ZM126.789 57.9692C126.495 57.9227 126.325 57.9227 125.968 57.9227C125.643 57.9227 123.692 58.0002 122.19 58.5112C121.4 58.8055 119.092 59.6882 119.092 62.29C119.092 64.8917 121.57 66.7656 125.426 66.7656C128.88 66.7656 130.707 65.0775 130.707 62.8165C130.707 60.9271 129.515 59.936 126.789 57.9692ZM127.796 51.0312C128.617 50.2104 128.694 49.0644 128.694 48.414C128.694 45.8277 127.176 41.8167 124.218 41.8167C123.305 41.8167 122.298 42.2813 121.725 43.0091C121.121 43.7525 120.951 44.7281 120.951 45.6573C120.951 48.0578 122.344 52.0378 125.395 52.0378C126.278 52.0378 127.238 51.6042 127.796 51.0312Z" fill="white"/>
<path d="M107.06 57.613C101.376 57.613 98.3406 53.1219 98.3406 49.0644C98.3406 44.3255 102.166 40.268 107.602 40.268C112.852 40.268 116.15 44.4339 116.15 48.8166C116.15 53.0909 112.898 57.613 107.06 57.613ZM111.504 54.686C112.371 53.5245 112.588 52.0688 112.588 50.6595C112.588 47.4538 111.086 41.3521 106.626 41.3521C105.449 41.3521 104.256 41.8167 103.389 42.591C101.995 43.8609 101.732 45.456 101.732 47.0202C101.732 50.6131 103.482 56.5289 107.834 56.5289C109.259 56.5289 110.683 55.8475 111.504 54.686Z" fill="white"/>
<path d="M88.0107 57.613C82.3271 57.613 79.2917 53.1219 79.2917 49.0644C79.2917 44.3255 83.1169 40.268 88.5527 40.268C93.8027 40.268 97.1013 44.4339 97.1013 48.8166C97.1013 53.0909 93.8492 57.613 88.0107 57.613ZM92.4554 54.686C93.3226 53.5245 93.5394 52.0688 93.5394 50.6595C93.5394 47.4538 92.0217 41.3521 87.5771 41.3521C86.3846 41.3521 85.2076 41.8167 84.3404 42.591C82.9311 43.8609 82.6833 45.456 82.6833 47.0202C82.6833 50.6131 84.4488 56.5289 88.785 56.5289C90.2098 56.5289 91.6346 55.8475 92.4554 54.686Z" fill="white"/>
<path d="M76.9375 56.5445L72.1211 57.6595C70.1698 57.9692 68.4198 58.248 66.5614 58.248C57.2695 58.2325 53.7385 51.3565 53.7385 45.9671C53.7385 39.4008 58.7562 33.2991 67.3358 33.2991C69.1477 33.2991 70.8977 33.5623 72.4928 34.0115C75.0171 34.7238 76.1941 35.6066 76.9375 36.1176L74.1344 38.7968L72.9574 39.0601L73.7937 37.7128C72.6477 36.5977 70.557 34.5225 66.5924 34.5225C61.2805 34.5225 57.2695 38.58 57.2695 44.5114C57.2695 50.8764 61.838 56.8697 69.1787 56.8697C71.3313 56.8697 72.4463 56.4361 73.453 56.0334V50.5666L68.3734 50.8454L71.068 49.3897H78.2074L77.3401 50.2414C77.1078 50.4427 77.0768 50.5047 76.9994 50.7834C76.9684 51.0932 76.9375 52.0688 76.9375 52.425V56.5445Z" fill="white"/>
<path d="M167.055 54.8099V63.9625H165.243V40.6861H167.055V43.3344C168.232 41.6153 170.4 40.268 172.893 40.268C177.384 40.268 180.42 43.6905 180.42 49.0954C180.42 54.4692 177.4 57.9537 172.893 57.9537C170.539 57.9537 168.417 56.7303 167.055 54.8099ZM178.561 49.2347C178.561 45.1153 176.439 41.9715 172.661 41.9715C170.322 41.9715 168.077 43.8299 167.101 45.456V52.9825C168.077 54.6086 170.322 56.5289 172.661 56.5289C176.439 56.5289 178.561 53.3542 178.561 49.2347Z" fill="white"/>
<path d="M182.897 34.2283H184.755V57.613H182.897V34.2283Z" fill="white"/>
<path d="M204.966 62.3519C205.353 62.5223 206.019 62.6307 206.437 62.6307C207.552 62.6307 208.311 62.1816 209.008 60.571L210.324 57.5666L203.185 40.5778H205.213L211.331 55.3055L217.401 40.5778H219.446L210.742 61.1285C209.844 63.2501 208.419 64.2723 206.468 64.2723C205.879 64.2723 205.105 64.1639 204.656 64.0245L204.966 62.3519Z" fill="white"/>
<path d="M199.839 57.5975C199.716 57.009 199.623 56.498 199.561 56.0643C199.499 55.6307 199.468 55.1971 199.468 54.748C198.848 55.6617 197.966 56.436 196.82 57.04C195.689 57.644 194.605 57.9382 193.134 57.9382C191.353 57.9382 189.974 57.5046 188.999 56.6064C188.023 55.7236 187.528 54.5157 187.528 52.998C187.528 51.4803 188.24 50.2414 189.665 49.2967C191.09 48.352 192.932 47.8719 195.209 47.8719H199.452V45.7658C199.452 44.5578 199.034 43.5976 198.213 42.9162C197.393 42.2193 196.231 41.8786 194.729 41.8786C193.351 41.8786 192.236 42.2038 191.384 42.8233C190.547 43.4582 190.114 44.2481 190.114 45.1927H188.255L188.224 45.0998C188.163 43.8144 188.736 42.6994 189.99 41.7237C191.229 40.7481 192.839 40.268 194.837 40.268C196.82 40.268 198.43 40.7481 199.638 41.7083C200.846 42.6529 201.45 44.0313 201.45 45.8122V54.175C201.45 54.779 201.481 55.352 201.558 55.925C201.636 56.498 201.76 57.0555 201.915 57.5975H199.839ZM193.366 56.3741C194.915 56.3741 196.03 56.0179 197.16 55.3365C198.291 54.6551 199.05 53.7568 199.452 52.6728V49.4051H195.178C193.552 49.4051 192.205 49.7613 191.136 50.5047C190.067 51.2325 189.541 52.1153 189.541 53.1529C189.541 54.1285 189.882 54.9028 190.563 55.4913C191.26 56.0798 192.189 56.3741 193.366 56.3741Z" fill="white"/>
<path d="M53.1191 18.4784C53.1191 15.1488 55.7828 12.9962 59.097 12.9962C61.3116 12.9962 62.7673 13.9873 63.681 15.1953L62.0549 16.0625C61.4354 15.2727 60.3669 14.6532 59.097 14.6532C56.8514 14.6532 55.1634 16.2483 55.1634 18.4784C55.1789 20.693 56.8514 22.3036 59.097 22.3036C60.2585 22.3036 61.2806 21.808 61.7916 21.3434V19.7173H58.3846V18.0758H63.7739V22.0248C62.6589 23.1863 61.0638 23.9607 59.097 23.9607C55.7828 23.9762 53.1191 21.808 53.1191 18.4784Z" fill="white"/>
<path d="M66.3601 23.8212V13.1664H74.2738V14.808H68.3889V17.5492H74.1499V19.2062H68.3889V22.1796H74.2738V23.8212H66.3601Z" fill="white"/>
<path d="M79.648 23.8212V14.808H76.21V13.1664H85.0838V14.808H81.6458V23.8212H79.648Z" fill="white"/>
<path d="M92.1919 13.1664H94.1277V23.8212H92.1919V13.1664Z" fill="white"/>
<path d="M99.6719 23.8212V14.808H96.2339V13.1664H105.108V14.808H101.67V23.8212H99.6719Z" fill="white"/>
<path d="M111.736 18.4939C111.736 15.3346 114.167 13.0117 117.636 13.0117C121.075 13.0117 123.521 15.3346 123.521 18.4939C123.521 21.6532 121.059 23.9762 117.636 23.9762C114.167 23.9762 111.736 21.6532 111.736 18.4939ZM121.415 18.401C121.415 16.2329 119.928 14.6068 117.621 14.6068C115.298 14.6068 113.827 16.2329 113.827 18.401C113.827 20.5536 115.298 22.1952 117.621 22.1952C119.928 22.1952 121.415 20.5691 121.415 18.401Z" fill="white"/>
<path d="M133.696 23.8212L127.765 16.2018V23.8212H125.767V13.1664H127.811L133.619 20.5536V13.1664H135.616V23.8212H133.696Z" fill="white"/>
<defs>
<linearGradient id="paint0_linear_73_120" x1="17.8984" y1="40.8271" x2="31.0496" y2="60.1263" gradientUnits="userSpaceOnUse">
<stop stop-color="#FF177B"/>
<stop offset="1" stop-color="#FFEC73"/>
</linearGradient>
<linearGradient id="paint1_linear_73_120" x1="23.4962" y1="13.8069" x2="-0.125729" y2="63.97" gradientUnits="userSpaceOnUse">
<stop stop-color="#064AA2"/>
<stop offset="1" stop-color="#63FFD4"/>
</linearGradient>
<linearGradient id="paint2_linear_73_120" x1="30.6472" y1="36.3274" x2="1.57477" y2="53.7192" gradientUnits="userSpaceOnUse">
<stop stop-color="#FF4521"/>
<stop offset="1" stop-color="#8A33DB"/>
</linearGradient>
<linearGradient id="paint3_linear_73_120" x1="13.9737" y1="22.0157" x2="24.3822" y2="49.0706" gradientUnits="userSpaceOnUse">
<stop stop-color="#00A3B5"/>
<stop offset="1" stop-color="#D6FFA1"/>
</linearGradient>
</defs>
</svg>
