<svg width="237" height="146" viewBox="0 0 237 146" fill="none" xmlns="http://www.w3.org/2000/svg">
<path fill-rule="evenodd" clip-rule="evenodd" d="M0 9.00001C0 4.02945 4.02944 0 9 0H227.388C232.359 0 236.388 4.02944 236.388 9V136.53C236.388 141.5 232.359 145.53 227.388 145.53H8.99999C4.02943 145.53 0 141.5 0 136.53V9.00001Z" fill="url(#paint0_linear_83_859)"/>
<mask id="mask0_83_859" style="mask-type:alpha" maskUnits="userSpaceOnUse" x="0" y="0" width="237" height="146">
<path fill-rule="evenodd" clip-rule="evenodd" d="M0 9.00001C0 4.02945 4.02944 0 9 0H227.388C232.359 0 236.388 4.02944 236.388 9V136.53C236.388 141.5 232.359 145.53 227.388 145.53H8.99999C4.02943 145.53 0 141.5 0 136.53V9.00001Z" fill="white"/>
</mask>
<g mask="url(#mask0_83_859)">
<g opacity="0.1">
<path fill-rule="evenodd" clip-rule="evenodd" d="M112.922 26.88H139.032V-0.25708H112.922V26.88Z" fill="#E6E6E6"/>
<path fill-rule="evenodd" clip-rule="evenodd" d="M165.142 26.88H191.251V-0.25708H165.142V26.88Z" fill="#4D4D4D"/>
<path fill-rule="evenodd" clip-rule="evenodd" d="M217.361 26.88H243.471V-0.25708H217.361V26.88Z" fill="#1A1A1A"/>
<path fill-rule="evenodd" clip-rule="evenodd" d="M60.7026 26.88H86.8124V-0.25708H60.7026V26.88Z" fill="#999999"/>
<path fill-rule="evenodd" clip-rule="evenodd" d="M191.252 108.291H217.362V81.1542H191.252V108.291Z" fill="#B3B3B3"/>
<path fill-rule="evenodd" clip-rule="evenodd" d="M191.252 135.428H217.362V108.292H191.252V135.428Z" fill="#E6E6E6"/>
<path fill-rule="evenodd" clip-rule="evenodd" d="M217.361 108.291H243.471V81.1542H217.361V108.291Z" fill="#E6E6E6"/>
<path fill-rule="evenodd" clip-rule="evenodd" d="M217.361 162.565H243.471V135.428H217.361V162.565Z" fill="#999999"/>
<path fill-rule="evenodd" clip-rule="evenodd" d="M165.142 54.0173H191.251V26.8804H165.142V54.0173Z" fill="#E6E6E6"/>
<path fill-rule="evenodd" clip-rule="evenodd" d="M112.922 54.0173H139.032V26.8804H112.922V54.0173Z" fill="#999999"/>
<path fill-rule="evenodd" clip-rule="evenodd" d="M139.032 54.0173H165.141V26.8804H139.032V54.0173Z" fill="#808080"/>
<path fill-rule="evenodd" clip-rule="evenodd" d="M217.361 54.0173H243.471V26.8804H217.361V54.0173Z" fill="#B3B3B3"/>
<path fill-rule="evenodd" clip-rule="evenodd" d="M217.361 81.1543H243.471V54.0172H217.361V81.1543Z" fill="#999999"/>
<path fill-rule="evenodd" clip-rule="evenodd" d="M191.252 81.1543H217.362V54.0172H191.252V81.1543Z" fill="#808080"/>
<path fill-rule="evenodd" clip-rule="evenodd" d="M191.252 26.88H217.362V-0.25708H191.252V26.88Z" fill="#808080"/>
<path fill-rule="evenodd" clip-rule="evenodd" d="M191.252 54.0173H217.362V26.8804H191.252V54.0173Z" fill="#4D4D4D"/>
<path fill-rule="evenodd" clip-rule="evenodd" d="M139.032 26.88H165.141V-0.25708H139.032V26.88Z" fill="#DEDEDE"/>
<path fill-rule="evenodd" clip-rule="evenodd" d="M165.142 81.1543H191.251V54.0172H165.142V81.1543Z" fill="#B3B3B3"/>
<path fill-rule="evenodd" clip-rule="evenodd" d="M112.922 81.1543H139.032V54.0172H112.922V81.1543Z" fill="#CCCCCC"/>
<path fill-rule="evenodd" clip-rule="evenodd" d="M86.8125 54.0173H112.922V26.8804H86.8125V54.0173Z" fill="#CCCCCC"/>
<path fill-rule="evenodd" clip-rule="evenodd" d="M165.142 108.291H191.251V81.1542H165.142V108.291Z" fill="#CCCCCC"/>
<path fill-rule="evenodd" clip-rule="evenodd" d="M217.361 -0.25708H243.471L217.361 26.88V-0.25708Z" fill="#4D4D4D"/>
<path fill-rule="evenodd" clip-rule="evenodd" d="M165.142 54.0173L191.251 26.8804H165.142V54.0173Z" fill="#B3B3B3"/>
<path fill-rule="evenodd" clip-rule="evenodd" d="M191.252 108.292V135.428H217.362L191.252 108.292Z" fill="#CCCCCC"/>
<path fill-rule="evenodd" clip-rule="evenodd" d="M191.252 26.88V-0.25708H217.362L191.252 26.88Z" fill="black"/>
<path fill-rule="evenodd" clip-rule="evenodd" d="M191.252 54.0172V81.1543H217.362L191.252 54.0172Z" fill="#DEDEDE"/>
<path fill-rule="evenodd" clip-rule="evenodd" d="M139.032 54.0173V26.8804H112.922L139.032 54.0173Z" fill="#DEDEDE"/>
<path fill-rule="evenodd" clip-rule="evenodd" d="M60.7026 -0.25708V26.88H86.8124L60.7026 -0.25708Z" fill="#CCCCCC"/>
</g>
<path fill-rule="evenodd" clip-rule="evenodd" d="M223.106 29.1454C223.106 28.667 223.48 28.2793 223.94 28.2793C224.402 28.2793 224.774 28.667 224.774 29.1454C224.774 29.6234 224.402 30.0116 223.94 30.0116C223.48 30.0116 223.106 29.6234 223.106 29.1454ZM223.941 29.8044C224.292 29.8044 224.576 29.5099 224.576 29.1467C224.576 28.7822 224.292 28.4885 223.941 28.4885C223.592 28.4885 223.308 28.7822 223.308 29.1467C223.308 29.5099 223.592 29.8044 223.941 29.8044ZM223.829 29.526H223.658V28.7649H223.967C224.032 28.7649 224.097 28.7657 224.154 28.8031C224.214 28.8463 224.247 28.918 224.247 28.9934C224.247 29.0804 224.199 29.1609 224.121 29.1906L224.255 29.526H224.065L223.954 29.2245H223.829V29.526ZM223.828 29.0941H223.922C223.958 29.0941 223.996 29.0975 224.027 29.0801C224.055 29.061 224.069 29.0255 224.069 28.9916C224.069 28.9637 224.052 28.9298 224.028 28.915C223.998 28.8968 223.951 28.9006 223.919 28.9006H223.828V29.0941Z" fill="white"/>
<path fill-rule="evenodd" clip-rule="evenodd" d="M218.989 30.0671H222.691L219.463 14.077H216.223C214.726 14.077 214.361 15.2681 214.361 15.2681L208.349 30.0671H212.551L213.391 27.6925H218.517L218.989 30.0671ZM214.553 24.4115L216.671 18.4261L217.863 24.4115H214.553Z" fill="white"/>
<path fill-rule="evenodd" clip-rule="evenodd" d="M208.664 17.922L209.239 14.488C209.239 14.488 207.463 13.7909 205.613 13.7909C203.612 13.7909 198.861 14.6939 198.861 19.0845C198.861 23.2162 204.438 23.2679 204.438 25.436C204.438 27.6055 199.436 27.2182 197.784 25.8498L197.186 29.4393C197.186 29.4393 198.985 30.343 201.737 30.343C204.487 30.343 208.639 28.8713 208.639 24.8687C208.639 20.7111 203.012 20.3231 203.012 18.5158C203.012 16.7078 206.939 16.9402 208.664 17.922Z" fill="white"/>
<path fill-rule="evenodd" clip-rule="evenodd" d="M194.701 30.067H190.669L193.188 14.0769H197.221L194.701 30.067Z" fill="white"/>
<path fill-rule="evenodd" clip-rule="evenodd" d="M183.434 25.075L187.277 14.0767H191.616L185.202 30.0669H181.001L177.499 16.1748C175.311 14.8181 173.43 14.3804 173.289 14.3489C173.467 14.3886 176.425 15.0753 179.265 17.4488C182.066 19.7902 182.978 22.7072 182.978 22.7072L181.621 15.5164C181.621 15.5164 181.458 14.0767 179.709 14.0767H179.709C181.458 14.0767 181.622 15.5164 181.622 15.5164L182.978 22.7071V22.7064L183.434 25.075ZM173.341 14.1281L173.281 14.3471L173.341 14.1281ZM173.341 14.1281L173.281 14.3471L173.341 14.1281Z" fill="white"/>
<path fill-rule="evenodd" clip-rule="evenodd" d="M181.622 15.5167C181.622 15.5167 181.459 14.0769 179.71 14.0769H173.356L173.281 14.3473C173.282 14.3473 176.336 15.001 179.266 17.449C182.067 19.7904 182.979 22.7073 182.979 22.7073L181.622 15.5167Z" fill="#F9A533"/>
<path d="M14.0576 116.046H19.4365V116.95H15.0319V119.19H19.1051V120.044H15.0319V122.545H19.5119V123.424H14.0576V116.046ZM20.1899 118.045H21.3601L22.5956 119.938L23.8461 118.045L24.946 118.07L23.133 120.667L25.0264 123.424H23.8712L22.5353 121.405L21.2395 123.424H20.0944L21.9879 120.667L20.1899 118.045ZM28.1151 122.816C28.537 122.816 28.8869 122.64 29.1648 122.289C29.446 121.934 29.5866 121.405 29.5866 120.702C29.5866 120.273 29.5247 119.905 29.4008 119.597C29.1664 119.004 28.7379 118.708 28.1151 118.708C27.489 118.708 27.0604 119.021 26.8294 119.647C26.7055 119.982 26.6436 120.407 26.6436 120.923C26.6436 121.338 26.7055 121.691 26.8294 121.982C27.0638 122.538 27.4923 122.816 28.1151 122.816ZM25.7747 118.07H26.6536V118.783C26.8344 118.539 27.0319 118.35 27.2462 118.216C27.5509 118.015 27.9092 117.914 28.321 117.914C28.9304 117.914 29.4477 118.149 29.8729 118.617C30.2981 119.083 30.5107 119.749 30.5107 120.616C30.5107 121.788 30.2044 122.625 29.5917 123.128C29.2033 123.446 28.7513 123.605 28.2356 123.605C27.8305 123.605 27.4907 123.516 27.2161 123.338C27.0554 123.238 26.8763 123.066 26.6787 122.821V125.568H25.7747V118.07ZM31.7864 122.329H32.8361V123.424H31.7864V122.329ZM40.249 122.57C40.5872 122.57 40.8651 122.535 41.0827 122.465C41.4711 122.334 41.7892 122.083 42.037 121.711C42.2345 121.413 42.3768 121.032 42.4639 120.566C42.5141 120.288 42.5392 120.03 42.5392 119.793C42.5392 118.879 42.3567 118.169 41.9918 117.663C41.6302 117.158 41.0459 116.905 40.239 116.905H38.4661V122.57H40.249ZM37.4616 116.046H40.4499C41.4644 116.046 42.2513 116.406 42.8104 117.126C43.3093 117.775 43.5587 118.607 43.5587 119.622C43.5587 120.405 43.4114 121.114 43.1168 121.746C42.5978 122.865 41.7055 123.424 40.4399 123.424H37.4616V116.046ZM45.422 121.992C45.422 122.254 45.5174 122.46 45.7083 122.61C45.8991 122.761 46.1251 122.836 46.3863 122.836C46.7044 122.836 47.0124 122.763 47.3104 122.615C47.8126 122.371 48.0638 121.971 48.0638 121.415V120.687C47.9533 120.757 47.811 120.816 47.6369 120.862C47.4627 120.909 47.292 120.943 47.1246 120.963L46.5771 121.033C46.249 121.077 46.0029 121.145 45.8389 121.239C45.561 121.396 45.422 121.648 45.422 121.992ZM47.6117 120.164C47.8193 120.138 47.9583 120.051 48.0286 119.903C48.0688 119.823 48.0889 119.707 48.0889 119.557C48.0889 119.249 47.9784 119.026 47.7574 118.889C47.5398 118.748 47.2267 118.678 46.8182 118.678C46.3461 118.678 46.0113 118.805 45.8138 119.059C45.7033 119.2 45.6313 119.409 45.5978 119.687H44.754C44.7708 119.024 44.9851 118.564 45.3969 118.306C45.8121 118.045 46.2925 117.914 46.8383 117.914C47.4711 117.914 47.9851 118.035 48.3802 118.276C48.7719 118.517 48.9678 118.892 48.9678 119.401V122.5C48.9678 122.593 48.9862 122.669 49.023 122.726C49.0632 122.783 49.1452 122.811 49.2691 122.811C49.3093 122.811 49.3545 122.809 49.4047 122.806C49.4549 122.799 49.5085 122.791 49.5654 122.781V123.449C49.4248 123.489 49.3177 123.514 49.244 123.524C49.1703 123.534 49.0699 123.539 48.9427 123.539C48.6313 123.539 48.4053 123.429 48.2646 123.208C48.191 123.091 48.1391 122.925 48.109 122.711C47.9248 122.952 47.6603 123.161 47.3154 123.338C46.9706 123.516 46.5905 123.605 46.1754 123.605C45.6765 123.605 45.268 123.454 44.9499 123.153C44.6352 122.848 44.4778 122.468 44.4778 122.013C44.4778 121.514 44.6335 121.127 44.9449 120.852C45.2563 120.578 45.6648 120.409 46.1703 120.345L47.6117 120.164ZM50.6352 116.543H51.5492V118.045H52.4081V118.783H51.5492V122.294C51.5492 122.481 51.6129 122.607 51.7401 122.67C51.8104 122.707 51.9276 122.726 52.0917 122.726C52.1352 122.726 52.1821 122.726 52.2323 122.726C52.2825 122.722 52.3411 122.717 52.4081 122.711V123.424C52.3043 123.454 52.1955 123.476 52.0816 123.489C51.9711 123.503 51.8506 123.509 51.72 123.509C51.2981 123.509 51.0119 123.402 50.8612 123.188C50.7105 122.97 50.6352 122.689 50.6352 122.344V118.783H49.9069V118.045H50.6352V116.543ZM55.5571 117.924C55.9388 117.924 56.3087 118.015 56.667 118.196C57.0252 118.373 57.2981 118.604 57.4856 118.889C57.6664 119.16 57.787 119.476 57.8472 119.838C57.9008 120.086 57.9276 120.481 57.9276 121.023H53.9851C54.0018 121.569 54.1307 122.008 54.3718 122.339C54.6129 122.667 54.9862 122.831 55.4918 122.831C55.9639 122.831 56.3405 122.676 56.6218 122.364C56.7825 122.183 56.8963 121.974 56.9633 121.736H57.8523C57.8288 121.934 57.7501 122.155 57.6162 122.399C57.4856 122.64 57.3383 122.838 57.1742 122.992C56.8997 123.26 56.5598 123.441 56.1547 123.534C55.9371 123.588 55.691 123.615 55.4164 123.615C54.7468 123.615 54.1793 123.372 53.7139 122.886C53.2485 122.398 53.0158 121.715 53.0158 120.837C53.0158 119.973 53.2501 119.272 53.7189 118.733C54.1876 118.194 54.8004 117.924 55.5571 117.924ZM56.9985 120.305C56.9616 119.913 56.8763 119.6 56.7423 119.366C56.4946 118.931 56.0811 118.713 55.5018 118.713C55.0866 118.713 54.7384 118.864 54.4572 119.165C54.1759 119.463 54.0269 119.843 54.0102 120.305H56.9985Z" fill="#B6CFEE"/>
<path d="M212.25 123.595C213.792 123.595 214.937 122.736 215.178 121.405H214.259C214.028 122.244 213.259 122.761 212.25 122.761C210.854 122.761 209.98 121.621 209.98 119.803C209.98 117.985 210.854 116.84 212.245 116.84C213.244 116.84 214.018 117.427 214.259 118.361H215.178C214.962 116.965 213.772 116.006 212.245 116.006C210.276 116.006 209.051 117.462 209.051 119.803C209.051 122.138 210.281 123.595 212.25 123.595ZM219.683 123.424L222.355 116.177H221.406L219.276 122.254H219.196L217.066 116.177H216.117L218.789 123.424H219.683ZM218.93 135.595C220.471 135.595 221.617 134.736 221.858 133.405H220.938C220.707 134.244 219.939 134.761 218.93 134.761C217.533 134.761 216.659 133.621 216.659 131.803C216.659 129.985 217.533 128.84 218.925 128.84C219.924 128.84 220.697 129.427 220.938 130.361H221.858C221.642 128.965 220.451 128.006 218.925 128.006C216.956 128.006 215.73 129.462 215.73 131.803C215.73 134.138 216.961 135.595 218.93 135.595Z" fill="#B6CFEE"/>
<g filter="url(#filter0_d_83_859)">
<path d="M16.1787 64.7118H13.2267V63.9438H20.0187V64.7118H17.0667V72.3438H16.1787V64.7118ZM21.9093 67.2678C22.1093 66.8438 22.4053 66.5238 22.7973 66.3078C23.1973 66.0918 23.6893 65.9838 24.2733 65.9838V66.8118L24.0693 66.7998C23.4053 66.7998 22.8853 67.0038 22.5093 67.4118C22.1333 67.8198 21.9453 68.3918 21.9453 69.1278V72.3438H21.0933V66.0318H21.9093V67.2678ZM28.0122 65.9838C28.8362 65.9838 29.4682 66.1918 29.9082 66.6078C30.3482 67.0158 30.5682 67.6238 30.5682 68.4318V72.3438H29.7522V71.3598C29.5602 71.6878 29.2762 71.9438 28.9002 72.1278C28.5322 72.3118 28.0922 72.4037 27.5802 72.4037C26.8762 72.4037 26.3162 72.2358 25.9002 71.8998C25.4842 71.5638 25.2762 71.1198 25.2762 70.5678C25.2762 70.0318 25.4682 69.5998 25.8522 69.2718C26.2442 68.9438 26.8642 68.7798 27.7122 68.7798H29.7162V68.3958C29.7162 67.8518 29.5642 67.4398 29.2602 67.1598C28.9562 66.8718 28.5122 66.7278 27.9282 66.7278C27.5282 66.7278 27.1442 66.7958 26.7762 66.9318C26.4082 67.0598 26.0922 67.2398 25.8282 67.4718L25.4442 66.8358C25.7642 66.5638 26.1482 66.3558 26.5962 66.2118C27.0442 66.0598 27.5162 65.9838 28.0122 65.9838ZM27.7122 71.7318C28.1922 71.7318 28.6042 71.6238 28.9482 71.4078C29.2922 71.1838 29.5482 70.8638 29.7162 70.4478V69.4158H27.7362C26.6562 69.4158 26.1162 69.7918 26.1162 70.5438C26.1162 70.9118 26.2562 71.2038 26.5362 71.4197C26.8162 71.6278 27.2082 71.7318 27.7122 71.7318ZM38.6658 63.4398V72.3438H37.8498V71.0958C37.5938 71.5198 37.2538 71.8438 36.8298 72.0677C36.4138 72.2917 35.9418 72.4037 35.4138 72.4037C34.8218 72.4037 34.2858 72.2678 33.8058 71.9958C33.3258 71.7238 32.9498 71.3438 32.6778 70.8558C32.4058 70.3678 32.2698 69.8118 32.2698 69.1878C32.2698 68.5638 32.4058 68.0078 32.6778 67.5198C32.9498 67.0318 33.3258 66.6558 33.8058 66.3918C34.2858 66.1198 34.8218 65.9838 35.4138 65.9838C35.9258 65.9838 36.3858 66.0918 36.7938 66.3078C37.2098 66.5158 37.5498 66.8238 37.8138 67.2318V63.4398H38.6658ZM35.4858 71.6478C35.9258 71.6478 36.3218 71.5478 36.6738 71.3478C37.0338 71.1398 37.3138 70.8478 37.5138 70.4718C37.7218 70.0958 37.8258 69.6678 37.8258 69.1878C37.8258 68.7078 37.7218 68.2798 37.5138 67.9038C37.3138 67.5278 37.0338 67.2398 36.6738 67.0398C36.3218 66.8318 35.9258 66.7278 35.4858 66.7278C35.0378 66.7278 34.6338 66.8318 34.2738 67.0398C33.9218 67.2398 33.6418 67.5278 33.4338 67.9038C33.2338 68.2798 33.1338 68.7078 33.1338 69.1878C33.1338 69.6678 33.2338 70.0958 33.4338 70.4718C33.6418 70.8478 33.9218 71.1398 34.2738 71.3478C34.6338 71.5478 35.0378 71.6478 35.4858 71.6478ZM41.0386 63.4398H41.8906V72.3438H41.0386V63.4398ZM49.5652 66.0318L46.4092 73.0997C46.1532 73.6917 45.8572 74.1117 45.5212 74.3597C45.1852 74.6077 44.7812 74.7318 44.3092 74.7318C44.0052 74.7318 43.7212 74.6837 43.4572 74.5877C43.1932 74.4917 42.9652 74.3477 42.7732 74.1557L43.1692 73.5197C43.4892 73.8397 43.8732 73.9998 44.3212 73.9998C44.6092 73.9998 44.8532 73.9197 45.0532 73.7597C45.2612 73.5997 45.4532 73.3277 45.6292 72.9437L45.9052 72.3318L43.0852 66.0318H43.9732L46.3492 71.3958L48.7252 66.0318H49.5652ZM55.7178 64.7118H52.7658V63.9438H59.5578V64.7118H56.6058V72.3438H55.7178V64.7118ZM65.6361 69.4518H60.3561C60.4041 70.1078 60.6561 70.6398 61.1121 71.0478C61.5681 71.4478 62.1441 71.6478 62.8401 71.6478C63.2321 71.6478 63.5921 71.5798 63.9201 71.4438C64.2481 71.2998 64.5321 71.0918 64.7721 70.8198L65.2521 71.3718C64.9721 71.7078 64.6201 71.9638 64.1961 72.1398C63.7801 72.3158 63.3201 72.4037 62.8161 72.4037C62.1681 72.4037 61.5921 72.2678 61.0881 71.9958C60.5921 71.7158 60.2041 71.3318 59.9241 70.8438C59.6441 70.3558 59.5041 69.8038 59.5041 69.1878C59.5041 68.5718 59.6361 68.0198 59.9001 67.5318C60.1721 67.0438 60.5401 66.6638 61.0041 66.3918C61.4761 66.1198 62.0041 65.9838 62.5881 65.9838C63.1721 65.9838 63.6961 66.1198 64.1601 66.3918C64.6241 66.6638 64.9881 67.0438 65.2521 67.5318C65.5161 68.0118 65.6481 68.5638 65.6481 69.1878L65.6361 69.4518ZM62.5881 66.7158C61.9801 66.7158 61.4681 66.9118 61.0521 67.3038C60.6441 67.6878 60.4121 68.1918 60.3561 68.8158H64.8321C64.7761 68.1918 64.5401 67.6878 64.1241 67.3038C63.7161 66.9118 63.2041 66.7158 62.5881 66.7158ZM69.4146 65.9838C70.2386 65.9838 70.8706 66.1918 71.3106 66.6078C71.7506 67.0158 71.9706 67.6238 71.9706 68.4318V72.3438H71.1546V71.3598C70.9626 71.6878 70.6786 71.9438 70.3026 72.1278C69.9346 72.3118 69.4946 72.4037 68.9826 72.4037C68.2786 72.4037 67.7186 72.2358 67.3026 71.8998C66.8866 71.5638 66.6786 71.1198 66.6786 70.5678C66.6786 70.0318 66.8706 69.5998 67.2546 69.2718C67.6466 68.9438 68.2666 68.7798 69.1146 68.7798H71.1186V68.3958C71.1186 67.8518 70.9666 67.4398 70.6626 67.1598C70.3586 66.8718 69.9146 66.7278 69.3306 66.7278C68.9306 66.7278 68.5466 66.7958 68.1786 66.9318C67.8106 67.0598 67.4946 67.2398 67.2306 67.4718L66.8466 66.8358C67.1666 66.5638 67.5506 66.3558 67.9986 66.2118C68.4466 66.0598 68.9186 65.9838 69.4146 65.9838ZM69.1146 71.7318C69.5946 71.7318 70.0066 71.6238 70.3506 71.4078C70.6946 71.1838 70.9506 70.8638 71.1186 70.4478V69.4158H69.1386C68.0586 69.4158 67.5186 69.7918 67.5186 70.5438C67.5186 70.9118 67.6586 71.2038 67.9386 71.4197C68.2186 71.6278 68.6106 71.7318 69.1146 71.7318ZM82.1567 65.9838C82.9487 65.9838 83.5687 66.2118 84.0167 66.6678C84.4727 67.1238 84.7007 67.7958 84.7007 68.6838V72.3438H83.8487V68.7678C83.8487 68.1118 83.6887 67.6118 83.3687 67.2678C83.0567 66.9238 82.6127 66.7518 82.0367 66.7518C81.3807 66.7518 80.8647 66.9558 80.4887 67.3638C80.1127 67.7638 79.9247 68.3198 79.9247 69.0317V72.3438H79.0727V68.7678C79.0727 68.1118 78.9127 67.6118 78.5927 67.2678C78.2807 66.9238 77.8327 66.7518 77.2487 66.7518C76.6007 66.7518 76.0847 66.9558 75.7007 67.3638C75.3247 67.7638 75.1367 68.3198 75.1367 69.0317V72.3438H74.2847V66.0318H75.1007V67.1838C75.3247 66.7998 75.6367 66.5038 76.0367 66.2958C76.4367 66.0878 76.8967 65.9838 77.4167 65.9838C77.9447 65.9838 78.4007 66.0958 78.7847 66.3198C79.1767 66.5438 79.4687 66.8758 79.6607 67.3158C79.8927 66.8998 80.2247 66.5758 80.6567 66.3438C81.0967 66.1038 81.5967 65.9838 82.1567 65.9838Z" fill="white"/>
</g>
<path d="M20.3684 54.4895V61.6895H19.6176V58.3672H15.1124V61.6895H14.3513V54.4895H15.1124V57.6986H19.6176V54.4895H20.3684ZM24.7756 61.7409C24.2545 61.7409 23.7848 61.6243 23.3665 61.3912C22.9482 61.1512 22.619 60.822 22.379 60.4037C22.139 59.9855 22.019 59.5123 22.019 58.9843C22.019 58.4563 22.139 57.9832 22.379 57.5649C22.619 57.1466 22.9482 56.8209 23.3665 56.5877C23.7848 56.3546 24.2545 56.238 24.7756 56.238C25.2968 56.238 25.7665 56.3546 26.1848 56.5877C26.603 56.8209 26.9288 57.1466 27.1619 57.5649C27.4019 57.9832 27.5219 58.4563 27.5219 58.9843C27.5219 59.5123 27.4019 59.9855 27.1619 60.4037C26.9288 60.822 26.603 61.1512 26.1848 61.3912C25.7665 61.6243 25.2968 61.7409 24.7756 61.7409ZM24.7756 61.0929C25.1596 61.0929 25.5025 61.0072 25.8042 60.8357C26.1128 60.6575 26.3528 60.4072 26.5242 60.0849C26.6956 59.7626 26.7813 59.3957 26.7813 58.9843C26.7813 58.5729 26.6956 58.206 26.5242 57.8837C26.3528 57.5615 26.1128 57.3146 25.8042 57.1432C25.5025 56.9649 25.1596 56.8757 24.7756 56.8757C24.3916 56.8757 24.0453 56.9649 23.7368 57.1432C23.435 57.3146 23.195 57.5615 23.0168 57.8837C22.8453 58.206 22.7596 58.5729 22.7596 58.9843C22.7596 59.3957 22.8453 59.7626 23.0168 60.0849C23.195 60.4072 23.435 60.6575 23.7368 60.8357C24.0453 61.0072 24.3916 61.0929 24.7756 61.0929ZM29.0128 54.0575H29.7431V61.6895H29.0128V54.0575ZM36.7123 54.0575V61.6895H36.0128V60.6197C35.7934 60.9832 35.502 61.2609 35.1386 61.4529C34.782 61.6449 34.3774 61.7409 33.9248 61.7409C33.4174 61.7409 32.958 61.6243 32.5466 61.3912C32.1351 61.158 31.8128 60.8323 31.5797 60.414C31.3466 59.9957 31.23 59.5192 31.23 58.9843C31.23 58.4495 31.3466 57.9729 31.5797 57.5546C31.8128 57.1363 32.1351 56.814 32.5466 56.5877C32.958 56.3546 33.4174 56.238 33.9248 56.238C34.3637 56.238 34.758 56.3306 35.1077 56.5157C35.4643 56.694 35.7557 56.958 35.982 57.3077V54.0575H36.7123ZM33.9866 61.0929C34.3637 61.0929 34.7031 61.0072 35.0048 60.8357C35.3134 60.6575 35.5534 60.4072 35.7248 60.0849C35.9031 59.7626 35.9923 59.3957 35.9923 58.9843C35.9923 58.5729 35.9031 58.206 35.7248 57.8837C35.5534 57.5615 35.3134 57.3146 35.0048 57.1432C34.7031 56.9649 34.3637 56.8757 33.9866 56.8757C33.6026 56.8757 33.2563 56.9649 32.9477 57.1432C32.646 57.3146 32.406 57.5615 32.2277 57.8837C32.0563 58.206 31.9706 58.5729 31.9706 58.9843C31.9706 59.3957 32.0563 59.7626 32.2277 60.0849C32.406 60.4072 32.646 60.6575 32.9477 60.8357C33.2563 61.0072 33.6026 61.0929 33.9866 61.0929ZM43.457 59.2106H38.9312C38.9724 59.7729 39.1884 60.2289 39.5792 60.5786C39.9701 60.9215 40.4638 61.0929 41.0604 61.0929C41.3964 61.0929 41.705 61.0346 41.9861 60.918C42.2672 60.7946 42.5107 60.6163 42.7164 60.3832L43.1278 60.8563C42.8878 61.1443 42.5861 61.3637 42.2227 61.5146C41.8661 61.6655 41.4718 61.7409 41.0398 61.7409C40.4844 61.7409 39.9907 61.6243 39.5587 61.3912C39.1335 61.1512 38.801 60.822 38.561 60.4037C38.321 59.9855 38.201 59.5123 38.201 58.9843C38.201 58.4563 38.3141 57.9832 38.5404 57.5649C38.7735 57.1466 39.089 56.8209 39.4867 56.5877C39.8912 56.3546 40.3438 56.238 40.8444 56.238C41.345 56.238 41.7941 56.3546 42.1918 56.5877C42.5895 56.8209 42.9015 57.1466 43.1278 57.5649C43.3541 57.9763 43.4672 58.4495 43.4672 58.9843L43.457 59.2106ZM40.8444 56.8655C40.3232 56.8655 39.8844 57.0335 39.5278 57.3695C39.1781 57.6986 38.9792 58.1306 38.9312 58.6655H42.7678C42.7198 58.1306 42.5175 57.6986 42.161 57.3695C41.8112 57.0335 41.3724 56.8655 40.8444 56.8655ZM45.6531 57.3386C45.8246 56.9752 46.0783 56.7009 46.4143 56.5157C46.7571 56.3306 47.1788 56.238 47.6794 56.238V56.9477L47.5046 56.9375C46.9354 56.9375 46.4897 57.1123 46.1674 57.462C45.8451 57.8117 45.684 58.302 45.684 58.9329V61.6895H44.9537V56.2792H45.6531V57.3386ZM16.9536 69.238C17.6324 69.238 18.1707 69.4369 18.5684 69.8346C18.973 70.2255 19.1753 70.798 19.1753 71.5523V74.6895H18.445V71.6243C18.445 71.062 18.3044 70.6335 18.0233 70.3386C17.7421 70.0437 17.341 69.8963 16.8199 69.8963C16.237 69.8963 15.7741 70.0712 15.4313 70.4209C15.0953 70.7637 14.9273 71.2403 14.9273 71.8506V74.6895H14.197V69.2792H14.8964V70.2769C15.0953 69.9477 15.3696 69.694 15.7193 69.5157C16.0759 69.3306 16.4873 69.238 16.9536 69.238ZM23.0505 69.238C23.7568 69.238 24.2985 69.4163 24.6756 69.7729C25.0528 70.1226 25.2414 70.6437 25.2414 71.3363V74.6895H24.5419V73.846C24.3774 74.1272 24.1339 74.3466 23.8116 74.5043C23.4962 74.662 23.1191 74.7409 22.6802 74.7409C22.0768 74.7409 21.5968 74.5969 21.2402 74.3089C20.8836 74.0209 20.7054 73.6403 20.7054 73.1672C20.7054 72.7077 20.8699 72.3375 21.1991 72.0563C21.5351 71.7752 22.0665 71.6346 22.7934 71.6346H24.5111V71.3055C24.5111 70.8392 24.3808 70.486 24.1202 70.246C23.8596 69.9992 23.4791 69.8757 22.9785 69.8757C22.6356 69.8757 22.3065 69.934 21.9911 70.0506C21.6756 70.1603 21.4048 70.3146 21.1785 70.5135L20.8494 69.9683C21.1236 69.7352 21.4528 69.5569 21.8368 69.4335C22.2208 69.3032 22.6254 69.238 23.0505 69.238ZM22.7934 74.1649C23.2048 74.1649 23.5579 74.0723 23.8528 73.8872C24.1476 73.6952 24.3671 73.4209 24.5111 73.0643V72.1797H22.8139C21.8882 72.1797 21.4254 72.502 21.4254 73.1466C21.4254 73.462 21.5454 73.7123 21.7854 73.8975C22.0254 74.0757 22.3614 74.1649 22.7934 74.1649ZM33.9723 69.238C34.6512 69.238 35.1826 69.4335 35.5666 69.8243C35.9575 70.2152 36.1529 70.7912 36.1529 71.5523V74.6895H35.4226V71.6243C35.4226 71.062 35.2855 70.6335 35.0112 70.3386C34.7438 70.0437 34.3632 69.8963 33.8695 69.8963C33.3072 69.8963 32.8649 70.0712 32.5426 70.4209C32.2203 70.7637 32.0592 71.2403 32.0592 71.8506V74.6895H31.3289V71.6243C31.3289 71.062 31.1918 70.6335 30.9175 70.3386C30.65 70.0437 30.266 69.8963 29.7655 69.8963C29.21 69.8963 28.7678 70.0712 28.4386 70.4209C28.1163 70.7637 27.9552 71.2403 27.9552 71.8506V74.6895H27.2249V69.2792H27.9243V70.2666C28.1163 69.9375 28.3838 69.6837 28.7266 69.5055C29.0695 69.3272 29.4638 69.238 29.9095 69.238C30.362 69.238 30.7529 69.334 31.082 69.526C31.418 69.718 31.6683 70.0026 31.8329 70.3797C32.0318 70.0232 32.3163 69.7455 32.6866 69.5466C33.0638 69.3409 33.4923 69.238 33.9723 69.238ZM42.8643 72.2106H38.3386C38.3798 72.7729 38.5958 73.2289 38.9866 73.5786C39.3775 73.9215 39.8712 74.0929 40.4678 74.0929C40.8038 74.0929 41.1123 74.0346 41.3935 73.918C41.6746 73.7946 41.918 73.6163 42.1238 73.3832L42.5352 73.8563C42.2952 74.1443 41.9935 74.3637 41.63 74.5146C41.2735 74.6655 40.8792 74.7409 40.4472 74.7409C39.8918 74.7409 39.398 74.6243 38.966 74.3912C38.5409 74.1512 38.2083 73.822 37.9683 73.4037C37.7283 72.9855 37.6083 72.5123 37.6083 71.9843C37.6083 71.4563 37.7215 70.9832 37.9478 70.5649C38.1809 70.1466 38.4963 69.8209 38.894 69.5877C39.2986 69.3546 39.7512 69.238 40.2518 69.238C40.7523 69.238 41.2015 69.3546 41.5992 69.5877C41.9969 69.8209 42.3089 70.1466 42.5352 70.5649C42.7615 70.9763 42.8746 71.4495 42.8746 71.9843L42.8643 72.2106ZM40.2518 69.8655C39.7306 69.8655 39.2918 70.0335 38.9352 70.3695C38.5855 70.6986 38.3866 71.1306 38.3386 71.6655H42.1752C42.1272 71.1306 41.9249 70.6986 41.5683 70.3695C41.2186 70.0335 40.7798 69.8655 40.2518 69.8655Z" fill="#B6CFEE"/>
<path d="M17.071 81.8046C18.0052 81.8046 18.7301 82.0507 19.2457 82.5429C19.7613 83.0351 20.0476 83.5942 20.1045 84.2204H19.1302C19.0197 83.7449 18.7987 83.3682 18.4672 83.0903C18.1391 82.8124 17.677 82.6735 17.0811 82.6735C16.3545 82.6735 15.7669 82.9296 15.3182 83.4419C14.8729 83.9508 14.6503 84.7326 14.6503 85.7873C14.6503 86.6512 14.8511 87.3526 15.2529 87.8917C15.6581 88.4274 16.2607 88.6952 17.061 88.6952C17.7976 88.6952 18.3584 88.4123 18.7434 87.8465C18.9477 87.5485 19.1 87.1567 19.2005 86.6712H20.1748C20.0878 87.448 19.7998 88.0993 19.311 88.6249C18.725 89.2577 17.9348 89.5741 16.9404 89.5741C16.0833 89.5741 15.3634 89.3147 14.7808 88.7957C14.0141 88.1093 13.6307 87.0496 13.6307 85.6166C13.6307 84.5284 13.9187 83.6361 14.4946 82.9397C15.1173 82.183 15.9761 81.8046 17.071 81.8046ZM21.9678 87.9519C21.9678 88.2131 22.0632 88.419 22.254 88.5697C22.4449 88.7204 22.6709 88.7957 22.9321 88.7957C23.2501 88.7957 23.5582 88.722 23.8562 88.5747C24.3584 88.3303 24.6095 87.9302 24.6095 87.3744V86.6461C24.499 86.7164 24.3567 86.775 24.1826 86.8219C24.0085 86.8688 23.8378 86.9023 23.6703 86.9224L23.1229 86.9927C22.7948 87.0362 22.5487 87.1048 22.3846 87.1986C22.1067 87.356 21.9678 87.6071 21.9678 87.9519ZM24.1575 86.1238C24.3651 86.097 24.504 86.01 24.5744 85.8627C24.6145 85.7823 24.6346 85.6668 24.6346 85.5161C24.6346 85.2081 24.5241 84.9854 24.3032 84.8481C24.0855 84.7075 23.7725 84.6372 23.364 84.6372C22.8919 84.6372 22.5571 84.7644 22.3595 85.0189C22.249 85.1595 22.177 85.3688 22.1436 85.6467H21.2998C21.3165 84.9837 21.5308 84.5234 21.9427 84.2656C22.3578 84.0044 22.8383 83.8738 23.3841 83.8738C24.0169 83.8738 24.5308 83.9943 24.9259 84.2354C25.3177 84.4765 25.5135 84.8515 25.5135 85.3604V88.4592C25.5135 88.5529 25.5319 88.6283 25.5688 88.6852C25.609 88.7421 25.691 88.7706 25.8149 88.7706C25.8551 88.7706 25.9003 88.7689 25.9505 88.7656C26.0007 88.7589 26.0543 88.7505 26.1112 88.7404V89.4084C25.9706 89.4486 25.8634 89.4737 25.7898 89.4837C25.7161 89.4938 25.6157 89.4988 25.4884 89.4988C25.177 89.4988 24.951 89.3883 24.8104 89.1673C24.7367 89.0502 24.6848 88.8844 24.6547 88.6701C24.4706 88.9112 24.2061 89.1205 23.8612 89.2979C23.5163 89.4754 23.1363 89.5641 22.7211 89.5641C22.2222 89.5641 21.8138 89.4134 21.4957 89.1121C21.1809 88.8074 21.0236 88.4274 21.0236 87.972C21.0236 87.4731 21.1793 87.0864 21.4907 86.8119C21.802 86.5373 22.2105 86.3682 22.7161 86.3046L24.1575 86.1238ZM27.0253 84.0044H27.8841V84.9335C27.9544 84.7527 28.1268 84.5334 28.4014 84.2756C28.6759 84.0144 28.9923 83.8839 29.3506 83.8839C29.3673 83.8839 29.3958 83.8855 29.436 83.8889C29.4761 83.8922 29.5448 83.8989 29.6419 83.909V84.8632C29.5883 84.8532 29.5381 84.8465 29.4912 84.8431C29.4477 84.8398 29.3991 84.8381 29.3456 84.8381C28.8902 84.8381 28.5403 84.9854 28.2959 85.2801C28.0515 85.5714 27.9293 85.9079 27.9293 86.2896V89.3833H27.0253V84.0044ZM30.9979 86.7566C30.9979 87.3325 31.1201 87.8147 31.3645 88.2031C31.609 88.5914 32.0007 88.7856 32.5398 88.7856C32.9583 88.7856 33.3015 88.6065 33.5693 88.2483C33.8405 87.8866 33.9761 87.3693 33.9761 86.6964C33.9761 86.0167 33.8372 85.5144 33.5593 85.1897C33.2814 84.8615 32.9382 84.6975 32.5297 84.6975C32.0744 84.6975 31.7044 84.8716 31.4198 85.2198C31.1385 85.568 30.9979 86.0803 30.9979 86.7566ZM32.359 83.909C32.7708 83.909 33.1157 83.996 33.3936 84.1701C33.5543 84.2706 33.7367 84.4464 33.941 84.6975V81.9804H34.8098V89.3833H33.9962V88.635C33.7853 88.9664 33.5359 89.2058 33.2479 89.3532C32.96 89.5005 32.6302 89.5741 32.2585 89.5741C31.6592 89.5741 31.1402 89.323 30.7016 88.8208C30.263 88.3152 30.0437 87.6439 30.0437 86.8068C30.0437 86.0234 30.2429 85.3454 30.6413 84.7728C31.0431 84.1969 31.6157 83.909 32.359 83.909ZM39.0135 84.0044H39.8723V84.7678C40.1268 84.4531 40.3963 84.2271 40.6809 84.0898C40.9655 83.9525 41.2819 83.8839 41.6302 83.8839C42.3936 83.8839 42.9092 84.15 43.177 84.6824C43.3244 84.9737 43.398 85.3906 43.398 85.933V89.3833H42.4789V85.9932C42.4789 85.6651 42.4304 85.4006 42.3333 85.1997C42.1726 84.8649 41.8813 84.6975 41.4594 84.6975C41.2451 84.6975 41.0693 84.7192 40.9321 84.7628C40.6843 84.8364 40.4667 84.9837 40.2792 85.2047C40.1285 85.3822 40.0297 85.5663 39.9828 85.7572C39.9393 85.9447 39.9176 86.2142 39.9176 86.5658V89.3833H39.0135V84.0044ZM45.643 84.0044V87.5753C45.643 87.8498 45.6865 88.0741 45.7736 88.2483C45.9343 88.5697 46.234 88.7304 46.6726 88.7304C47.302 88.7304 47.7306 88.4491 47.9583 87.8866C48.0822 87.5853 48.1441 87.1718 48.1441 86.6461V84.0044H49.0481V89.3833H48.1943L48.2044 88.5898C48.0872 88.794 47.9415 88.9664 47.7674 89.1071C47.4226 89.3883 47.004 89.5289 46.5119 89.5289C45.7451 89.5289 45.2228 89.2728 44.9449 88.7605C44.7942 88.486 44.7189 88.1193 44.7189 87.6606V84.0044H45.643ZM50.4644 84.0044H51.3584V84.7678C51.5727 84.5033 51.7669 84.3108 51.941 84.1902C52.239 83.986 52.5771 83.8839 52.9555 83.8839C53.3841 83.8839 53.7289 83.9893 53.9901 84.2003C54.1374 84.3208 54.2713 84.4983 54.3919 84.7326C54.5928 84.4447 54.8288 84.2321 55.1 84.0948C55.3712 83.9542 55.6759 83.8839 56.0141 83.8839C56.7373 83.8839 57.2295 84.145 57.4907 84.6673C57.6313 84.9486 57.7016 85.3269 57.7016 85.8024V89.3833H56.7624V85.6467C56.7624 85.2884 56.672 85.0423 56.4912 84.9084C56.3138 84.7745 56.0961 84.7075 55.8383 84.7075C55.4834 84.7075 55.177 84.8264 54.9192 85.0641C54.6648 85.3018 54.5375 85.6986 54.5375 86.2544V89.3833H53.6184V85.8727C53.6184 85.5077 53.5749 85.2416 53.4879 85.0741C53.3506 84.823 53.0944 84.6975 52.7194 84.6975C52.3779 84.6975 52.0665 84.8297 51.7853 85.0942C51.5074 85.3587 51.3684 85.8375 51.3684 86.5306V89.3833H50.4644V84.0044ZM58.9622 81.9804H59.8411V84.6573C60.0386 84.3995 60.2747 84.2036 60.5492 84.0697C60.8238 83.9324 61.1218 83.8638 61.4432 83.8638C62.1129 83.8638 62.6553 84.0948 63.0704 84.5568C63.489 85.0156 63.6982 85.6936 63.6982 86.5909C63.6982 87.4413 63.4923 88.1478 63.0805 88.7103C62.6687 89.2728 62.0978 89.5541 61.3679 89.5541C60.9594 89.5541 60.6145 89.4553 60.3333 89.2577C60.1659 89.1406 59.9867 88.9531 59.7959 88.6952V89.3833H58.9622V81.9804ZM61.3126 88.7555C61.8015 88.7555 62.1664 88.5613 62.4075 88.1729C62.6519 87.7845 62.7741 87.2723 62.7741 86.6361C62.7741 86.0702 62.6519 85.6015 62.4075 85.2298C62.1664 84.8582 61.8098 84.6724 61.3377 84.6724C60.9259 84.6724 60.5643 84.8247 60.2529 85.1294C59.9449 85.4341 59.7909 85.9363 59.7909 86.6361C59.7909 87.1417 59.8545 87.5518 59.9817 87.8666C60.2194 88.4592 60.6631 88.7555 61.3126 88.7555ZM66.9979 83.8839C67.3796 83.8839 67.7496 83.9743 68.1078 84.1551C68.4661 84.3325 68.739 84.5635 68.9265 84.8481C69.1073 85.1193 69.2278 85.4358 69.2881 85.7974C69.3417 86.0451 69.3684 86.4402 69.3684 86.9826H65.4259C65.4427 87.5284 65.5716 87.967 65.8126 88.2985C66.0537 88.6266 66.427 88.7907 66.9326 88.7907C67.4047 88.7907 67.7814 88.635 68.0626 88.3236C68.2234 88.1428 68.3372 87.9335 68.4042 87.6958H69.2931C69.2697 87.8933 69.191 88.1143 69.0571 88.3587C68.9265 88.5998 68.7792 88.7974 68.6151 88.9514C68.3405 89.2192 68.0007 89.4 67.5956 89.4938C67.3779 89.5474 67.1318 89.5741 66.8573 89.5741C66.1876 89.5741 65.6201 89.3314 65.1547 88.8459C64.6893 88.3571 64.4566 87.674 64.4566 86.7968C64.4566 85.933 64.691 85.2315 65.1597 84.6925C65.6285 84.1534 66.2412 83.8839 66.9979 83.8839ZM68.4393 86.2644C68.4025 85.8727 68.3171 85.5596 68.1832 85.3253C67.9354 84.89 67.5219 84.6724 66.9427 84.6724C66.5275 84.6724 66.1793 84.823 65.898 85.1244C65.6168 85.4224 65.4678 85.8024 65.451 86.2644H68.4393ZM70.5085 84.0044H71.3673V84.9335C71.4376 84.7527 71.6101 84.5334 71.8846 84.2756C72.1592 84.0144 72.4756 83.8839 72.8338 83.8839C72.8506 83.8839 72.879 83.8855 72.9192 83.8889C72.9594 83.8922 73.028 83.8989 73.1251 83.909V84.8632C73.0716 84.8532 73.0213 84.8465 72.9745 84.8431C72.9309 84.8398 72.8824 84.8381 72.8288 84.8381C72.3735 84.8381 72.0236 84.9854 71.7792 85.2801C71.5347 85.5714 71.4125 85.9079 71.4125 86.2896V89.3833H70.5085V84.0044Z" fill="#B6CFEE"/>
<g filter="url(#filter1_d_83_859)">
<path d="M15.2965 101.559C15.3969 102.419 15.7959 103.013 16.4934 103.342C16.8506 103.51 17.2635 103.593 17.7323 103.593C18.6251 103.593 19.2864 103.309 19.7161 102.74C20.1458 102.17 20.3606 101.54 20.3606 100.848C20.3606 100.011 20.1039 99.3635 19.5905 98.9059C19.0827 98.4483 18.4717 98.2195 17.7574 98.2195C17.2384 98.2195 16.792 98.32 16.4181 98.5209C16.0498 98.7218 15.7345 99.0008 15.4722 99.3579L14.1664 99.2826L15.0788 92.8289H21.3065V94.2854H16.2088L15.6982 97.6169C15.9773 97.4048 16.2423 97.2458 16.4934 97.1397C16.9399 96.9556 17.4561 96.8635 18.042 96.8635C19.1413 96.8635 20.0732 97.2179 20.8378 97.9266C21.6023 98.6353 21.9845 99.5337 21.9845 100.622C21.9845 101.755 21.633 102.754 20.9298 103.619C20.2323 104.483 19.1162 104.916 17.5816 104.916C16.6051 104.916 15.7401 104.643 14.9867 104.096C14.239 103.543 13.8205 102.698 13.7312 101.559H15.2965ZM25.7912 101.559C25.8917 102.419 26.2907 103.013 26.9882 103.342C27.3454 103.51 27.7583 103.593 28.2271 103.593C29.1199 103.593 29.7812 103.309 30.2109 102.74C30.6406 102.17 30.8554 101.54 30.8554 100.848C30.8554 100.011 30.5987 99.3635 30.0853 98.9059C29.5775 98.4483 28.9665 98.2195 28.2522 98.2195C27.7332 98.2195 27.2868 98.32 26.9129 98.5209C26.5446 98.7218 26.2293 99.0008 25.967 99.3579L24.6612 99.2826L25.5736 92.8289H31.8013V94.2854H26.7036L26.193 97.6169C26.4721 97.4048 26.7371 97.2458 26.9882 97.1397C27.4347 96.9556 27.9508 96.8635 28.5368 96.8635C29.6361 96.8635 30.568 97.2179 31.3325 97.9266C32.0971 98.6353 32.4793 99.5337 32.4793 100.622C32.4793 101.755 32.1277 102.754 31.4246 103.619C30.7271 104.483 29.611 104.916 28.0764 104.916C27.0998 104.916 26.2349 104.643 25.4815 104.096C24.7338 103.543 24.3152 102.698 24.226 101.559H25.7912ZM38.8056 92.628C40.3569 92.628 41.4786 93.267 42.1705 94.5449C42.7062 95.5326 42.9741 96.8858 42.9741 98.6046C42.9741 100.234 42.7314 101.582 42.2459 102.648C41.5427 104.177 40.3932 104.941 38.7972 104.941C37.3575 104.941 36.286 104.316 35.5829 103.066C34.997 102.023 34.704 100.622 34.704 98.8641C34.704 97.5025 34.8798 96.3334 35.2314 95.3568C35.8898 93.5376 37.0812 92.628 38.8056 92.628ZM38.7888 103.568C39.5701 103.568 40.1923 103.222 40.6555 102.53C41.1186 101.838 41.3502 100.549 41.3502 98.6632C41.3502 97.3016 41.1828 96.1827 40.848 95.3066C40.5132 94.4249 39.863 93.984 38.8976 93.984C38.0104 93.984 37.3603 94.4026 36.9473 95.2396C36.5399 96.0711 36.3363 97.2988 36.3363 98.9227C36.3363 100.145 36.4674 101.127 36.7297 101.869C37.1315 103.002 37.8178 103.568 38.7888 103.568ZM46.3037 96.1269V94.9718C47.3919 94.8657 48.1508 94.69 48.5805 94.4444C49.0102 94.1933 49.3311 93.6046 49.5431 92.6782H50.7317V104.615H49.1246V96.1269H46.3037ZM61.4172 104.615C61.473 103.582 61.685 102.684 62.0533 101.919C62.4272 101.155 63.1527 100.46 64.2297 99.835L65.8368 98.9059C66.5567 98.4874 67.0617 98.1302 67.3519 97.8345C67.8095 97.3713 68.0383 96.8412 68.0383 96.2441C68.0383 95.5465 67.829 94.9941 67.4105 94.5867C66.992 94.1738 66.4339 93.9673 65.7364 93.9673C64.704 93.9673 63.9897 94.3579 63.5935 95.1392C63.3815 95.5577 63.2643 96.1381 63.242 96.8802H61.7101C61.7269 95.8367 61.9194 94.9857 62.2877 94.3272C62.9406 93.1665 64.093 92.5862 65.7447 92.5862C67.1175 92.5862 68.1192 92.9573 68.7498 93.6994C69.3859 94.4416 69.704 95.2675 69.704 96.1771C69.704 97.1369 69.3664 97.9573 68.6912 98.6381C68.3006 99.0343 67.6002 99.5142 66.5902 100.078L65.4434 100.714C64.8965 101.015 64.4668 101.303 64.1543 101.576C63.5963 102.062 63.2447 102.6 63.0997 103.192H69.6454V104.615H61.4172ZM71.912 104.615C71.9678 103.582 72.1798 102.684 72.5481 101.919C72.922 101.155 73.6475 100.46 74.7245 99.835L76.3316 98.9059C77.0515 98.4874 77.5565 98.1302 77.8467 97.8345C78.3043 97.3713 78.5331 96.8412 78.5331 96.2441C78.5331 95.5465 78.3238 94.9941 77.9053 94.5867C77.4867 94.1738 76.9287 93.9673 76.2312 93.9673C75.1988 93.9673 74.4845 94.3579 74.0883 95.1392C73.8763 95.5577 73.7591 96.1381 73.7367 96.8802H72.2049C72.2217 95.8367 72.4142 94.9857 72.7825 94.3272C73.4354 93.1665 74.5878 92.5862 76.2395 92.5862C77.6123 92.5862 78.614 92.9573 79.2446 93.6994C79.8807 94.4416 80.1988 95.2675 80.1988 96.1771C80.1988 97.1369 79.8612 97.9573 79.186 98.6381C78.7953 99.0343 78.095 99.5142 77.085 100.078L75.9382 100.714C75.3913 101.015 74.9616 101.303 74.6491 101.576C74.0911 102.062 73.7395 102.6 73.5944 103.192H80.1402V104.615H71.912ZM85.6378 92.3183V94.1849L87.4626 93.5488L87.7974 94.4779L85.9726 95.0722L87.1026 96.6459L86.2739 97.2402L85.1774 95.6079L84.0725 97.2402L83.2187 96.6459L84.3655 95.0722L82.5239 94.4779L82.8588 93.5488L84.6668 94.2017V92.3183H85.6378ZM93.2699 92.3183V94.1849L95.0946 93.5488L95.4295 94.4779L93.6047 95.0722L94.7347 96.6459L93.906 97.2402L92.8095 95.6079L91.7046 97.2402L90.8508 96.6459L91.9975 95.0722L90.156 94.4779L90.4908 93.5488L92.2989 94.2017V92.3183H93.2699ZM106.626 92.3183V94.1849L108.45 93.5488L108.785 94.4779L106.96 95.0722L108.09 96.6459L107.262 97.2402L106.165 95.6079L105.06 97.2402L104.206 96.6459L105.353 95.0722L103.512 94.4779L103.846 93.5488L105.655 94.2017V92.3183H106.626ZM114.258 92.3183V94.1849L116.082 93.5488L116.417 94.4779L114.592 95.0722L115.722 96.6459L114.894 97.2402L113.797 95.6079L112.692 97.2402L111.838 96.6459L112.985 95.0722L111.144 94.4779L111.479 93.5488L113.287 94.2017V92.3183H114.258ZM121.89 92.3183V94.1849L123.714 93.5488L124.049 94.4779L122.224 95.0722L123.354 96.6459L122.526 97.2402L121.429 95.6079L120.324 97.2402L119.471 96.6459L120.617 95.0722L118.776 94.4779L119.111 93.5488L120.919 94.2017V92.3183H121.89ZM129.522 92.3183V94.1849L131.346 93.5488L131.681 94.4779L129.857 95.0722L130.987 96.6459L130.158 97.2402L129.061 95.6079L127.956 97.2402L127.103 96.6459L128.249 95.0722L126.408 94.4779L126.743 93.5488L128.551 94.2017V92.3183H129.522ZM144.777 100.371V94.9383L140.935 100.371H144.777ZM144.803 104.615V101.685H139.546V100.212L145.037 92.5945H146.309V100.371H148.075V101.685H146.309V104.615H144.803ZM155.272 100.371V94.9383L151.43 100.371H155.272ZM155.297 104.615V101.685H150.041V100.212L155.532 92.5945H156.804V100.371H158.57V101.685H156.804V104.615H155.297ZM164.763 97.6503C165.427 97.6503 165.946 97.4662 166.32 97.0979C166.693 96.724 166.88 96.2804 166.88 95.767C166.88 95.3205 166.702 94.9104 166.345 94.5365C165.987 94.1626 165.443 93.9757 164.712 93.9757C163.987 93.9757 163.462 94.1626 163.139 94.5365C162.815 94.9104 162.653 95.3484 162.653 95.8507C162.653 96.4143 162.862 96.8551 163.281 97.1732C163.7 97.4913 164.193 97.6503 164.763 97.6503ZM164.855 103.585C165.552 103.585 166.13 103.398 166.587 103.024C167.051 102.645 167.282 102.081 167.282 101.333C167.282 100.558 167.045 99.969 166.571 99.5672C166.096 99.1654 165.488 98.9645 164.746 98.9645C164.026 98.9645 163.437 99.171 162.98 99.5839C162.528 99.9913 162.302 100.558 162.302 101.283C162.302 101.908 162.508 102.449 162.921 102.907C163.34 103.359 163.984 103.585 164.855 103.585ZM162.712 98.2279C162.293 98.0493 161.967 97.8401 161.732 97.6001C161.292 97.1537 161.071 96.5733 161.071 95.859C161.071 94.9662 161.395 94.1989 162.042 93.5571C162.69 92.9154 163.607 92.5945 164.796 92.5945C165.946 92.5945 166.847 92.8987 167.5 93.5069C168.153 94.1096 168.479 94.8155 168.479 95.6247C168.479 96.3724 168.289 96.9779 167.91 97.4411C167.698 97.7034 167.369 97.96 166.922 98.2112C167.419 98.44 167.809 98.7022 168.094 98.998C168.624 99.556 168.889 100.281 168.889 101.174C168.889 102.229 168.535 103.125 167.826 103.861C167.118 104.592 166.116 104.958 164.821 104.958C163.655 104.958 162.667 104.643 161.858 104.012C161.054 103.376 160.653 102.455 160.653 101.25C160.653 100.541 160.826 99.9299 161.172 99.4165C161.518 98.8975 162.031 98.5013 162.712 98.2279ZM179.56 92.8289V94.1431C179.175 94.517 178.661 95.1671 178.02 96.0934C177.384 97.0198 176.82 98.0186 176.329 99.0901C175.843 100.134 175.475 101.085 175.224 101.944C175.062 102.497 174.853 103.387 174.596 104.615H172.93C173.31 102.327 174.147 100.05 175.442 97.7843C176.206 96.4561 177.01 95.3094 177.852 94.344H171.223V92.8289H179.56Z" fill="white"/>
</g>
<g opacity="0.1">
<path fill-rule="evenodd" clip-rule="evenodd" d="M163.894 140.793C163.894 139.216 165.126 137.938 166.646 137.938C168.168 137.938 169.398 139.216 169.398 140.793C169.398 142.369 168.168 143.649 166.646 143.649C165.126 143.649 163.894 142.369 163.894 140.793ZM166.645 142.962C167.804 142.962 168.739 141.991 168.739 140.793C168.739 139.592 167.804 138.624 166.645 138.624C165.492 138.624 164.556 139.592 164.556 140.793C164.556 141.991 165.492 142.962 166.645 142.962ZM166.275 142.045H165.712V139.537H166.733C166.946 139.537 167.162 139.54 167.35 139.663C167.546 139.806 167.656 140.042 167.656 140.291C167.656 140.577 167.499 140.842 167.24 140.94L167.682 142.045H167.055L166.689 141.052H166.275V142.045ZM166.275 140.623H166.585C166.702 140.623 166.828 140.634 166.93 140.577C167.023 140.514 167.072 140.397 167.072 140.285C167.072 140.193 167.015 140.081 166.936 140.032C166.836 139.972 166.68 139.985 166.574 139.985H166.275V140.623Z" fill="white"/>
<path fill-rule="evenodd" clip-rule="evenodd" d="M150.307 143.828H162.524L151.873 91.1376H141.179C136.239 91.1376 135.034 95.0623 135.034 95.0623L115.193 143.828H129.06L131.833 136.003H148.748L150.307 143.828ZM135.668 125.191L142.657 105.469L146.592 125.191H135.668Z" fill="white"/>
<path fill-rule="evenodd" clip-rule="evenodd" d="M116.231 103.807L118.131 92.4919C118.131 92.4919 112.271 90.1948 106.165 90.1948C99.5613 90.1948 83.8815 93.1703 83.8815 107.638C83.8815 121.253 102.286 121.423 102.286 128.567C102.286 135.716 85.7793 134.44 80.329 129.931L78.353 141.759C78.353 141.759 84.2919 144.736 93.3728 144.736C102.449 144.736 116.151 139.887 116.151 126.698C116.151 112.998 97.581 111.72 97.581 105.764C97.581 99.8064 110.54 100.572 116.231 103.807Z" fill="white"/>
<path fill-rule="evenodd" clip-rule="evenodd" d="M70.153 143.828H56.8486L65.163 91.1376H78.4717L70.153 143.828Z" fill="white"/>
<path fill-rule="evenodd" clip-rule="evenodd" d="M32.9733 127.378L45.6566 91.1375H59.9772L38.808 143.828H24.9456L13.3893 98.0511C5.88265 93.4032 -0.529567 92.0285 -0.531738 92.0285V92.0285C-0.529567 92.0285 9.55018 94.1823 19.2174 102.249C28.4611 109.964 31.4707 119.576 31.4707 119.576L31.4707 119.576V119.574L32.9733 127.378Z" fill="white"/>
<path fill-rule="evenodd" clip-rule="evenodd" d="M26.9918 95.8818C26.9918 95.8818 26.4533 91.1376 20.6816 91.1376H-0.287832L-0.533203 92.0287C-0.531032 92.0287 9.54872 94.1825 19.2159 102.249C28.4596 109.964 31.4692 119.576 31.4692 119.576L26.9918 95.8818Z" fill="#F9A533"/>
</g>
<g filter="url(#filter2_d_83_859)">
<path d="M209.409 132.274C208.559 132.274 207.941 132.041 207.556 131.576C207.174 131.107 206.983 130.538 206.983 129.868H207.928C207.968 130.334 208.055 130.672 208.189 130.883C208.423 131.261 208.847 131.45 209.459 131.45C209.935 131.45 210.317 131.323 210.604 131.069C210.892 130.814 211.036 130.486 211.036 130.084C211.036 129.589 210.884 129.242 210.579 129.045C210.278 128.847 209.858 128.748 209.319 128.748C209.259 128.748 209.197 128.75 209.133 128.753C209.073 128.753 209.011 128.755 208.947 128.758V127.96C209.041 127.97 209.12 127.977 209.183 127.98C209.247 127.983 209.315 127.985 209.389 127.985C209.727 127.985 210.005 127.931 210.223 127.824C210.604 127.637 210.795 127.302 210.795 126.82C210.795 126.461 210.668 126.185 210.414 125.991C210.159 125.797 209.863 125.7 209.525 125.7C208.922 125.7 208.505 125.901 208.274 126.302C208.147 126.523 208.075 126.838 208.058 127.247H207.164C207.164 126.711 207.271 126.256 207.486 125.881C207.854 125.211 208.502 124.876 209.429 124.876C210.163 124.876 210.73 125.04 211.132 125.368C211.534 125.693 211.735 126.165 211.735 126.785C211.735 127.227 211.616 127.585 211.378 127.859C211.231 128.03 211.04 128.164 210.805 128.261C211.184 128.365 211.478 128.566 211.689 128.864C211.904 129.158 212.011 129.52 212.011 129.949C212.011 130.635 211.785 131.194 211.333 131.626C210.881 132.058 210.24 132.274 209.409 132.274ZM215.135 132.274C214.284 132.274 213.666 132.041 213.281 131.576C212.9 131.107 212.709 130.538 212.709 129.868H213.653C213.693 130.334 213.78 130.672 213.914 130.883C214.149 131.261 214.572 131.45 215.185 131.45C215.66 131.45 216.042 131.323 216.33 131.069C216.618 130.814 216.762 130.486 216.762 130.084C216.762 129.589 216.61 129.242 216.305 129.045C216.003 128.847 215.583 128.748 215.044 128.748C214.984 128.748 214.922 128.75 214.858 128.753C214.798 128.753 214.736 128.755 214.673 128.758V127.96C214.766 127.97 214.845 127.977 214.909 127.98C214.972 127.983 215.041 127.985 215.115 127.985C215.453 127.985 215.731 127.931 215.948 127.824C216.33 127.637 216.521 127.302 216.521 126.82C216.521 126.461 216.394 126.185 216.139 125.991C215.885 125.797 215.588 125.7 215.25 125.7C214.647 125.7 214.231 125.901 214 126.302C213.872 126.523 213.8 126.838 213.784 127.247H212.89C212.89 126.711 212.997 126.256 213.211 125.881C213.579 125.211 214.227 124.876 215.155 124.876C215.888 124.876 216.455 125.04 216.857 125.368C217.259 125.693 217.46 126.165 217.46 126.785C217.46 127.227 217.341 127.585 217.103 127.859C216.956 128.03 216.765 128.164 216.531 128.261C216.909 128.365 217.204 128.566 217.415 128.864C217.629 129.158 217.736 129.52 217.736 129.949C217.736 130.635 217.51 131.194 217.058 131.626C216.606 132.058 215.965 132.274 215.135 132.274ZM220.86 132.274C220.01 132.274 219.392 132.041 219.007 131.576C218.625 131.107 218.434 130.538 218.434 129.868H219.378C219.419 130.334 219.506 130.672 219.64 130.883C219.874 131.261 220.298 131.45 220.91 131.45C221.386 131.45 221.767 131.323 222.055 131.069C222.343 130.814 222.487 130.486 222.487 130.084C222.487 129.589 222.335 129.242 222.03 129.045C221.729 128.847 221.309 128.748 220.77 128.748C220.709 128.748 220.647 128.75 220.584 128.753C220.524 128.753 220.462 128.755 220.398 128.758V127.96C220.492 127.97 220.57 127.977 220.634 127.98C220.698 127.983 220.766 127.985 220.84 127.985C221.178 127.985 221.456 127.931 221.674 127.824C222.055 127.637 222.246 127.302 222.246 126.82C222.246 126.461 222.119 126.185 221.865 125.991C221.61 125.797 221.314 125.7 220.976 125.7C220.373 125.7 219.956 125.901 219.725 126.302C219.598 126.523 219.526 126.838 219.509 127.247H218.615C218.615 126.711 218.722 126.256 218.937 125.881C219.305 125.211 219.953 124.876 220.88 124.876C221.613 124.876 222.181 125.04 222.583 125.368C222.985 125.693 223.185 126.165 223.185 126.785C223.185 127.227 223.067 127.585 222.829 127.859C222.682 128.03 222.491 128.164 222.256 128.261C222.635 128.365 222.929 128.566 223.14 128.864C223.354 129.158 223.462 129.52 223.462 129.949C223.462 130.635 223.236 131.194 222.784 131.626C222.332 132.058 221.69 132.274 220.86 132.274Z" fill="white"/>
</g>
<g filter="url(#filter3_d_83_859)">
<path d="M13.3389 126.985V126.292C13.9918 126.229 14.4471 126.123 14.7049 125.976C14.9628 125.825 15.1553 125.472 15.2825 124.916H15.9957V132.078H15.0314V126.985H13.3389ZM21.0883 124.856C21.8919 124.856 22.451 125.065 22.7658 125.484C23.0838 125.899 23.2429 126.328 23.2429 126.77H22.3489C22.2953 126.485 22.21 126.262 22.0928 126.102C21.8751 125.8 21.5453 125.65 21.1034 125.65C20.5978 125.65 20.196 125.884 19.898 126.353C19.6 126.818 19.4343 127.486 19.4008 128.357C19.6084 128.052 19.8696 127.824 20.1843 127.674C20.4722 127.54 20.7937 127.473 21.1486 127.473C21.7513 127.473 22.2769 127.665 22.7256 128.05C23.1742 128.435 23.3986 129.009 23.3986 129.773C23.3986 130.426 23.186 131.005 22.7607 131.511C22.3355 132.013 21.7295 132.264 20.9427 132.264C20.2697 132.264 19.6888 132.009 19.1999 131.501C18.7111 130.988 18.4667 130.128 18.4667 128.919C18.4667 128.025 18.5755 127.267 18.7931 126.644C19.2116 125.452 19.9767 124.856 21.0883 124.856ZM21.023 131.46C21.4985 131.46 21.8534 131.301 22.0878 130.983C22.3255 130.662 22.4443 130.283 22.4443 129.848C22.4443 129.48 22.3389 129.13 22.1279 128.799C21.917 128.464 21.5336 128.296 20.9778 128.296C20.5894 128.296 20.2479 128.425 19.9533 128.683C19.662 128.941 19.5163 129.329 19.5163 129.848C19.5163 130.304 19.6486 130.687 19.9131 130.998C20.1809 131.306 20.5509 131.46 21.023 131.46ZM26.1458 124.7H26.9092L24.5688 132.078H23.8054L26.1458 124.7ZM27.6525 126.985V126.292C28.3054 126.229 28.7607 126.123 29.0186 125.976C29.2764 125.825 29.4689 125.472 29.5961 124.916H30.3093V132.078H29.345V126.985H27.6525ZM33.7596 130.34C33.7864 130.839 33.9789 131.184 34.3372 131.375C34.5213 131.475 34.7289 131.526 34.96 131.526C35.3919 131.526 35.7602 131.347 36.0649 130.988C36.3696 130.627 36.5855 129.895 36.7128 128.794C36.5119 129.112 36.2624 129.336 35.9644 129.467C35.6698 129.594 35.3517 129.657 35.0102 129.657C34.3171 129.657 33.768 129.441 33.3629 129.009C32.9611 128.578 32.7602 128.022 32.7602 127.342C32.7602 126.689 32.9594 126.115 33.3578 125.619C33.7563 125.124 34.3439 124.876 35.1207 124.876C36.1687 124.876 36.8919 125.348 37.2903 126.292C37.5113 126.811 37.6218 127.461 37.6218 128.241C37.6218 129.122 37.4895 129.902 37.225 130.581C36.7864 131.713 36.0431 132.279 34.9951 132.279C34.292 132.279 33.758 132.095 33.393 131.727C33.028 131.358 32.8456 130.896 32.8456 130.34H33.7596ZM35.1307 128.864C35.489 128.864 35.8154 128.747 36.1101 128.512C36.4081 128.275 36.5571 127.861 36.5571 127.272C36.5571 126.743 36.4231 126.349 36.1553 126.092C35.8908 125.83 35.5526 125.7 35.1408 125.7C34.6988 125.7 34.3472 125.849 34.0861 126.147C33.8283 126.441 33.6994 126.836 33.6994 127.332C33.6994 127.801 33.8132 128.174 34.0409 128.452C34.2686 128.727 34.6318 128.864 35.1307 128.864Z" fill="white"/>
</g>
</g>
<defs>
<filter id="filter0_d_83_859" x="11.6343" y="62.6436" width="74.6586" height="14.4765" filterUnits="userSpaceOnUse" color-interpolation-filters="sRGB">
<feFlood flood-opacity="0" result="BackgroundImageFix"/>
<feColorMatrix in="SourceAlpha" type="matrix" values="0 0 0 0 0 0 0 0 0 0 0 0 0 0 0 0 0 0 127 0" result="hardAlpha"/>
<feOffset dy="0.796116"/>
<feGaussianBlur stdDeviation="0.796116"/>
<feColorMatrix type="matrix" values="0 0 0 0 0.210489 0 0 0 0 0.379624 0 0 0 0 0.111645 0 0 0 1 0"/>
<feBlend mode="normal" in2="BackgroundImageFix" result="effect1_dropShadow_83_859"/>
<feBlend mode="normal" in="SourceGraphic" in2="effect1_dropShadow_83_859" result="shape"/>
</filter>
<filter id="filter1_d_83_859" x="12.1387" y="91.5222" width="169.014" height="15.8239" filterUnits="userSpaceOnUse" color-interpolation-filters="sRGB">
<feFlood flood-opacity="0" result="BackgroundImageFix"/>
<feColorMatrix in="SourceAlpha" type="matrix" values="0 0 0 0 0 0 0 0 0 0 0 0 0 0 0 0 0 0 127 0" result="hardAlpha"/>
<feOffset dy="0.796116"/>
<feGaussianBlur stdDeviation="0.796116"/>
<feColorMatrix type="matrix" values="0 0 0 0 0.210489 0 0 0 0 0.379624 0 0 0 0 0.111645 0 0 0 1 0"/>
<feBlend mode="normal" in2="BackgroundImageFix" result="effect1_dropShadow_83_859"/>
<feBlend mode="normal" in="SourceGraphic" in2="effect1_dropShadow_83_859" result="shape"/>
</filter>
<filter id="filter2_d_83_859" x="205.391" y="124.08" width="19.6625" height="10.5824" filterUnits="userSpaceOnUse" color-interpolation-filters="sRGB">
<feFlood flood-opacity="0" result="BackgroundImageFix"/>
<feColorMatrix in="SourceAlpha" type="matrix" values="0 0 0 0 0 0 0 0 0 0 0 0 0 0 0 0 0 0 127 0" result="hardAlpha"/>
<feOffset dy="0.796116"/>
<feGaussianBlur stdDeviation="0.796116"/>
<feColorMatrix type="matrix" values="0 0 0 0 0.210489 0 0 0 0 0.379624 0 0 0 0 0.111645 0 0 0 1 0"/>
<feBlend mode="normal" in2="BackgroundImageFix" result="effect1_dropShadow_83_859"/>
<feBlend mode="normal" in="SourceGraphic" in2="effect1_dropShadow_83_859" result="shape"/>
</filter>
<filter id="filter3_d_83_859" x="11.7466" y="123.904" width="27.4672" height="10.7632" filterUnits="userSpaceOnUse" color-interpolation-filters="sRGB">
<feFlood flood-opacity="0" result="BackgroundImageFix"/>
<feColorMatrix in="SourceAlpha" type="matrix" values="0 0 0 0 0 0 0 0 0 0 0 0 0 0 0 0 0 0 127 0" result="hardAlpha"/>
<feOffset dy="0.796116"/>
<feGaussianBlur stdDeviation="0.796116"/>
<feColorMatrix type="matrix" values="0 0 0 0 0.210489 0 0 0 0 0.379624 0 0 0 0 0.111645 0 0 0 1 0"/>
<feBlend mode="normal" in2="BackgroundImageFix" result="effect1_dropShadow_83_859"/>
<feBlend mode="normal" in="SourceGraphic" in2="effect1_dropShadow_83_859" result="shape"/>
</filter>
<linearGradient id="paint0_linear_83_859" x1="1.43734" y1="145.628" x2="237.768" y2="140.96" gradientUnits="userSpaceOnUse">
<stop stop-color="#414345"/>
<stop offset="1" stop-color="#232526"/>
</linearGradient>
</defs>
</svg>
