<svg width="303" height="19" viewBox="0 0 303 19" fill="none" xmlns="http://www.w3.org/2000/svg">
<path d="M21.5 0.2H18.65L15.55 12.925L11.975 0.2H9.8L6.225 12.925L3.125 0.2H0.275L4.925 18H7.275L10.875 5.525L14.5 18H16.85L21.5 0.2ZM46.7273 18V0.2H44.0273V7.8H36.8023V0.2H34.1023V18H36.8023V10.225H44.0273V18H46.7273ZM74.4875 18L67.9625 0.2H65.7875L59.2625 18H62.1375L63.3625 14.425H70.3875L71.6125 18H74.4875ZM69.6375 12.125H64.1625L66.9375 4.225L69.6375 12.125ZM96.4482 2.625V0.2H83.9482V2.625H88.8482V18H91.5482V2.625H96.4482ZM136.443 2.625V0.2H123.943V2.625H128.843V18H131.543V2.625H136.443ZM162.133 18V0.2H159.433V7.8H152.208V0.2H149.508V18H152.208V10.225H159.433V18H162.133ZM188.168 18V15.575H179.493V10.225H186.893V7.825H179.493V2.625H188.168V0.2H176.793V18H188.168ZM213.006 0.2H210.056L206.331 8.025L202.606 0.2H199.656L204.981 10.675V18H207.681V10.675L213.006 0.2ZM252.586 12.925C252.586 11.375 252.086 10.15 251.136 9.275C250.361 8.575 249.461 8.2 247.836 7.95L245.711 7.625C244.736 7.475 244.211 7.225 243.761 6.825C243.286 6.425 243.111 5.825 243.111 5.175C243.111 3.55 244.236 2.4 246.336 2.4C247.861 2.4 249.161 2.725 250.261 3.775L251.961 2.075C250.436 0.65 248.811 0.0499986 246.436 0.0499986C242.736 0.0499986 240.486 2.15 240.486 5.25C240.486 6.725 240.936 7.875 241.811 8.675C242.586 9.425 243.711 9.875 245.161 10.1L247.261 10.4C248.161 10.525 248.761 10.75 249.211 11.15C249.711 11.575 249.911 12.2 249.911 13C249.911 14.75 248.586 15.75 246.236 15.75C244.436 15.75 242.961 15.325 241.661 14.025L239.886 15.8C241.611 17.525 243.511 18.15 246.186 18.15C249.936 18.15 252.586 16.2 252.586 12.925ZM279.307 18L272.782 0.2H270.607L264.082 18H266.957L268.182 14.425H275.207L276.432 18H279.307ZM274.457 12.125H268.982L271.757 4.225L274.457 12.125ZM302.103 0.2H299.153L295.428 8.025L291.703 0.2H288.753L294.078 10.675V18H296.778V10.675L302.103 0.2Z" fill="#F77F00"/>
</svg>
